<svg width="19" height="18" viewBox="0 0 19 18" fill="none" xmlns="http://www.w3.org/2000/svg">
<g id="fi-sr-interrogation" clip-path="url(#clip0_2015_305)">
<path id="Vector" d="M9.76441 0C7.98438 0 6.24432 0.527841 4.76428 1.51677C3.28423 2.50571 2.13068 3.91131 1.44949 5.55585C0.768304 7.20038 0.590074 9.00998 0.937341 10.7558C1.28461 12.5016 2.14177 14.1053 3.40045 15.364C4.65912 16.6226 6.26277 17.4798 8.00859 17.8271C9.75442 18.1743 11.564 17.9961 13.2086 17.3149C14.8531 16.6337 16.2587 15.4802 17.2476 14.0001C18.2366 12.5201 18.7644 10.78 18.7644 9C18.7618 6.61384 17.8128 4.32616 16.1255 2.63889C14.4382 0.951621 12.1506 0.00258081 9.76441 0V0ZM9.76441 15C9.61607 15 9.47107 14.956 9.34773 14.8736C9.22439 14.7912 9.12826 14.6741 9.0715 14.537C9.01473 14.4 8.99988 14.2492 9.02882 14.1037C9.05776 13.9582 9.12919 13.8246 9.23408 13.7197C9.33897 13.6148 9.4726 13.5433 9.61809 13.5144C9.76358 13.4855 9.91438 13.5003 10.0514 13.5571C10.1885 13.6139 10.3056 13.71 10.388 13.8333C10.4704 13.9567 10.5144 14.1017 10.5144 14.25C10.5144 14.4489 10.4354 14.6397 10.2947 14.7803C10.1541 14.921 9.96332 15 9.76441 15ZM11.2119 9.3795C10.9906 9.51788 10.8096 9.71211 10.6871 9.94264C10.5647 10.1732 10.5051 10.4319 10.5144 10.6927V11.25C10.5144 11.4489 10.4354 11.6397 10.2947 11.7803C10.1541 11.921 9.96332 12 9.76441 12C9.56549 12 9.37473 11.921 9.23408 11.7803C9.09342 11.6397 9.01441 11.4489 9.01441 11.25V10.6927C9.00333 10.1636 9.13408 9.64106 9.3931 9.17947C9.65212 8.71788 10.03 8.33402 10.4874 8.06775C10.7645 7.91513 10.9863 7.6788 11.121 7.39255C11.2557 7.10631 11.2964 6.7848 11.2374 6.474C11.179 6.1779 11.0336 5.90594 10.8198 5.69287C10.6061 5.47979 10.3337 5.33526 10.0374 5.27775C9.8212 5.23773 9.59883 5.24574 9.38606 5.3012C9.17329 5.35666 8.97531 5.45822 8.80615 5.59869C8.63698 5.73916 8.50077 5.9151 8.40715 6.11405C8.31353 6.31301 8.2648 6.53012 8.26441 6.75C8.26441 6.94891 8.18539 7.13968 8.04474 7.28033C7.90409 7.42098 7.71332 7.5 7.51441 7.5C7.3155 7.5 7.12473 7.42098 6.98408 7.28033C6.84343 7.13968 6.76441 6.94891 6.76441 6.75C6.7646 6.22088 6.90472 5.70122 7.17057 5.24374C7.43643 4.78625 7.81854 4.40722 8.27817 4.14509C8.73779 3.88296 9.25857 3.74705 9.78767 3.75115C10.3168 3.75526 10.8354 3.89922 11.2909 4.16846C11.7464 4.43769 12.1226 4.8226 12.3813 5.28415C12.64 5.7457 12.7721 6.26747 12.7641 6.79653C12.756 7.32559 12.6082 7.84312 12.3356 8.29662C12.063 8.75011 11.6754 9.12345 11.2119 9.37875V9.3795Z" fill="#9F9F9F"/>
</g>
<defs>
<clipPath id="clip0_2015_305">
<rect width="18" height="18" fill="white" transform="translate(0.764404)"/>
</clipPath>
</defs>
</svg>
