<svg width="24" height="24" viewBox="0 0 24 24" fill="none" xmlns="http://www.w3.org/2000/svg">
<g id="fi-sr-bell" clip-path="url(#clip0_2015_286)">
<path id="Vector" d="M8.16119 20.0968C8.57296 20.8675 9.20085 21.5011 9.96775 21.9199C10.7346 22.3386 11.6072 22.5243 12.4781 22.454C13.3491 22.3838 14.1805 22.0607 14.8704 21.5244C15.5603 20.9881 16.0785 20.2621 16.3614 19.4354L8.16119 20.0968Z" fill="url(#paint0_linear_2015_286)"/>
<path id="Vector_2" d="M20.9618 11.4429L18.9927 6.44057C18.3499 4.68726 17.1399 3.19894 15.5546 2.21189C13.9694 1.22485 12.0998 0.795674 10.2428 0.992501C8.3858 1.18933 6.64775 2.00088 5.30465 3.2983C3.96154 4.59573 3.09035 6.30465 2.8294 8.15374L2.02176 13.2123C1.9144 13.8845 1.96112 14.5723 2.1584 15.2238C2.35568 15.8753 2.69836 16.4734 3.16059 16.9732C3.62281 17.4729 4.1925 17.8611 4.82666 18.1084C5.46082 18.3558 6.14289 18.4559 6.82139 18.4012L17.1406 17.5688C17.8402 17.5124 18.5168 17.293 19.1163 16.9281C19.7158 16.5632 20.2215 16.063 20.5929 15.4675C20.9643 14.8721 21.1912 14.1979 21.2552 13.499C21.3193 12.8002 21.2188 12.096 20.9618 11.4429Z" fill="url(#paint1_linear_2015_286)"/>
</g>
<defs>
<linearGradient id="paint0_linear_2015_286" x1="12.2613" y1="19.7661" x2="12.4781" y2="22.454" gradientUnits="userSpaceOnUse">
<stop stop-color="#F0FDF2"/>
<stop offset="1" stop-color="#BBF7C6"/>
</linearGradient>
<linearGradient id="paint1_linear_2015_286" x1="10.6079" y1="0.960402" x2="11.9811" y2="17.985" gradientUnits="userSpaceOnUse">
<stop stop-color="#F0FDF2"/>
<stop offset="1" stop-color="#BBF7C6"/>
</linearGradient>
<clipPath id="clip0_2015_286">
<rect width="21.5739" height="21.5739" fill="white" transform="translate(-0.00842285 1.81732) rotate(-4.61153)"/>
</clipPath>
</defs>
</svg>
