<svg width="24" height="25" viewBox="0 0 24 25" fill="none" xmlns="http://www.w3.org/2000/svg">
<g id="fi-sr-playing-cards" clip-path="url(#clip0_2015_295)">
<path id="Vector" d="M22.0688 8.12538L19.7624 17.6905C19.6218 18.3541 19.3311 18.9767 18.9128 19.5107C18.4944 20.0446 17.9594 20.4757 17.3486 20.771C17.6206 19.9638 17.7251 19.1097 17.6557 18.2608L16.933 9.30079C16.797 7.63808 16.007 6.09722 14.7363 5.01625C13.4656 3.93527 11.8181 3.40245 10.1551 3.53468L8.66323 3.65502C9.15747 2.87847 9.87754 2.2718 10.7267 1.91651C11.5758 1.56121 12.5134 1.47432 13.4134 1.66751L18.6342 2.82099C19.7871 3.07966 20.7925 3.78007 21.4347 4.77184C22.0768 5.7636 22.3045 6.96763 22.0688 8.12538ZM15.141 9.44533L15.8637 18.4053C15.9581 19.5932 15.5775 20.77 14.8054 21.6776C14.0332 22.5852 12.9327 23.1495 11.7451 23.2467L6.36905 23.6803C5.1812 23.7747 4.00441 23.3941 3.09681 22.622C2.18921 21.8499 1.62491 20.7493 1.52769 19.5617L0.804966 10.6017C0.710585 9.41383 1.09119 8.23704 1.86331 7.32945C2.63542 6.42185 3.73599 5.85754 4.92361 5.76032L10.2996 5.32669C11.4875 5.23231 12.6643 5.61291 13.5719 6.38503C14.4795 7.15714 15.0438 8.25771 15.141 9.44533ZM11.8461 13.3184C11.8077 12.8432 11.5822 12.4026 11.219 12.0936C10.8558 11.7847 10.3848 11.6326 9.90952 11.671C9.43425 11.7093 8.99368 11.9349 8.68472 12.298C8.37576 12.6612 8.22373 13.1322 8.26206 13.6075C8.22373 13.1322 7.99816 12.6917 7.63499 12.3827C7.27182 12.0738 6.80078 11.9217 6.32552 11.9601C5.85025 11.9984 5.40967 12.224 5.10071 12.5871C4.79176 12.9503 4.63972 13.4213 4.67806 13.8966C4.78285 15.1958 6.30656 16.8233 7.42621 17.6231C7.77028 17.8697 8.1906 17.9863 8.61251 17.9523C9.03442 17.9182 9.43061 17.7358 9.73073 17.4373C10.7077 16.4683 11.9509 14.6176 11.8461 13.3184Z" fill="url(#paint0_linear_2015_295)"/>
</g>
<defs>
<linearGradient id="paint0_linear_2015_295" x1="10.906" y1="1.67836" x2="12.6399" y2="23.1745" gradientUnits="userSpaceOnUse">
<stop stop-color="#F0FDF2"/>
<stop offset="1" stop-color="#BBF7C6"/>
</linearGradient>
<clipPath id="clip0_2015_295">
<rect width="21.5739" height="21.5739" fill="white" transform="translate(0.15448 2.53802) rotate(-4.61153)"/>
</clipPath>
</defs>
</svg>
