<svg width="12" height="7" viewBox="0 0 12 7" fill="none" xmlns="http://www.w3.org/2000/svg">
<path id="Vector" d="M10.7194 0.917214C10.6208 0.818479 10.5036 0.740155 10.3747 0.686717C10.2457 0.633279 10.1075 0.605774 9.96789 0.605774C9.82831 0.605774 9.69009 0.633279 9.56113 0.686717C9.43218 0.740155 9.31502 0.818479 9.21635 0.917214L5.96793 4.16492C5.90152 4.23132 5.81145 4.26862 5.71754 4.26862C5.62363 4.26862 5.53356 4.23132 5.46714 4.16492L2.21944 0.917214C2.02021 0.717892 1.74996 0.605877 1.46814 0.605811C1.18633 0.605745 0.916027 0.717632 0.716706 0.916859C0.517385 1.11609 0.40537 1.38633 0.405304 1.66815C0.405238 1.94997 0.517125 2.22027 0.716352 2.41959L3.96477 5.66801C4.19498 5.89824 4.4683 6.08088 4.7691 6.20549C5.0699 6.33009 5.3923 6.39423 5.71789 6.39423C6.04348 6.39423 6.36588 6.33009 6.66669 6.20549C6.96749 6.08088 7.2408 5.89824 7.47102 5.66801L10.7194 2.41959C10.9186 2.22034 11.0305 1.95014 11.0305 1.6684C11.0305 1.38666 10.9186 1.11646 10.7194 0.917214Z" fill="white"/>
</svg>
