<svg width="21" height="21" viewBox="0 0 21 21" fill="none" xmlns="http://www.w3.org/2000/svg">
<g id="fi-sr-fingerprint" clip-path="url(#clip0_2002_1268)">
<path id="Vector" d="M5.41563 19.1486C5.23348 19.1486 5.05636 19.0888 4.91138 18.9786C4.7664 18.8683 4.66155 18.7135 4.61287 18.538C4.56419 18.3625 4.57437 18.1758 4.64184 18.0066C4.70931 17.8374 4.83036 17.695 4.98646 17.6011C7.93896 15.8278 7.93896 12.0195 7.93896 9.74447C7.93896 9.08143 8.20236 8.44554 8.6712 7.9767C9.14004 7.50786 9.77592 7.24447 10.439 7.24447C11.102 7.24447 11.7379 7.50786 12.2067 7.9767C12.6756 8.44554 12.939 9.08143 12.939 9.74447C12.939 9.96548 12.8512 10.1774 12.6949 10.3337C12.5386 10.49 12.3266 10.5778 12.1056 10.5778C11.8846 10.5778 11.6727 10.49 11.5164 10.3337C11.3601 10.1774 11.2723 9.96548 11.2723 9.74447C11.2723 9.52345 11.1845 9.31149 11.0282 9.15521C10.8719 8.99893 10.66 8.91114 10.439 8.91114C10.218 8.91114 10.006 8.99893 9.84971 9.15521C9.69343 9.31149 9.60563 9.52345 9.60563 9.74447C9.60563 12.2003 9.60563 16.7728 5.84396 19.0303C5.71453 19.1078 5.56649 19.1487 5.41563 19.1486ZM9.55147 20.3328C11.4531 18.4161 12.564 15.7211 12.8523 12.3153C12.862 12.206 12.8501 12.096 12.8172 11.9913C12.7842 11.8867 12.731 11.7896 12.6604 11.7056C12.5899 11.6216 12.5035 11.5523 12.4061 11.5018C12.3088 11.4513 12.2024 11.4205 12.0931 11.4111C11.9838 11.3999 11.8733 11.4108 11.7682 11.4432C11.6632 11.4756 11.5657 11.5288 11.4817 11.5996C11.3976 11.6705 11.3287 11.7575 11.279 11.8555C11.2293 11.9536 11.1998 12.0606 11.1923 12.1703C10.9331 15.2178 10.0098 17.5036 8.36896 19.1545C8.21315 19.3113 8.12601 19.5236 8.12671 19.7446C8.12742 19.9657 8.21591 20.1774 8.37271 20.3332C8.52952 20.489 8.74181 20.5762 8.96287 20.5755C9.18392 20.5748 9.39565 20.4863 9.55147 20.3295V20.3328ZM13.8848 20.1778C14.3903 19.3379 14.8112 18.4499 15.1415 17.527C15.2105 17.3205 15.196 17.0953 15.1011 16.8994C15.0063 16.7035 14.8385 16.5525 14.6337 16.4787C14.429 16.4049 14.2034 16.4141 14.0054 16.5044C13.8074 16.5948 13.6525 16.759 13.574 16.962C13.2806 17.7804 12.9071 18.5678 12.459 19.3128C12.4022 19.4064 12.3644 19.5103 12.3477 19.6185C12.3311 19.7268 12.3359 19.8372 12.3619 19.9436C12.388 20.0499 12.4347 20.1501 12.4995 20.2384C12.5642 20.3267 12.6458 20.4014 12.7394 20.4582C12.9285 20.5729 13.1554 20.6078 13.3702 20.5552C13.4765 20.5292 13.5767 20.4825 13.665 20.4177C13.7533 20.3529 13.828 20.2714 13.8848 20.1778ZM15.8556 14.9036C16.1644 13.2019 16.3039 11.4737 16.2723 9.74447C16.2715 8.56388 15.9125 7.41132 15.2428 6.4391C14.573 5.46688 13.624 4.72076 12.5212 4.29934C11.4184 3.87792 10.2137 3.80103 9.06626 4.07885C7.91883 4.35667 6.8827 4.9761 6.0948 5.8553C6.01806 5.93614 5.95833 6.03154 5.91912 6.13588C5.87991 6.24021 5.86203 6.35135 5.86654 6.46271C5.87104 6.57408 5.89784 6.68341 5.94535 6.78423C5.99286 6.88506 6.06011 6.97533 6.14312 7.0497C6.22614 7.12407 6.32323 7.18104 6.42865 7.21722C6.53407 7.2534 6.64567 7.26807 6.75686 7.26036C6.86805 7.25265 6.97656 7.22271 7.07598 7.17231C7.17539 7.12192 7.26368 7.05209 7.33563 6.96697C7.89836 6.33887 8.63844 5.89631 9.45805 5.69777C10.2777 5.49924 11.1382 5.55409 11.926 5.85506C12.7138 6.15603 13.3917 6.68896 13.8701 7.38341C14.3486 8.07787 14.6051 8.90115 14.6056 9.74447C14.6364 11.3668 14.5074 12.9882 14.2206 14.5853C14.1786 14.8021 14.2242 15.0267 14.3477 15.2099C14.4711 15.393 14.6622 15.5196 14.879 15.562C14.9319 15.5726 14.9858 15.5779 15.0398 15.5778C15.2328 15.5773 15.4197 15.5098 15.5685 15.3869C15.7173 15.2639 15.8188 15.0931 15.8556 14.9036ZM6.2723 9.74447C6.27206 9.51188 6.29129 9.27968 6.3298 9.0503C6.35468 8.93988 6.35681 8.82554 6.33604 8.71426C6.31528 8.60299 6.27207 8.49711 6.20904 8.40309C6.14601 8.30907 6.06448 8.22887 5.96944 8.16739C5.87439 8.10592 5.76782 8.06445 5.65622 8.04552C5.54461 8.02659 5.43033 8.03059 5.32033 8.05729C5.21032 8.08398 5.10691 8.13281 5.0164 8.20078C4.92589 8.26876 4.85018 8.35447 4.79388 8.45267C4.73759 8.55087 4.70189 8.65951 4.68896 8.77197C4.63395 9.09322 4.60608 9.41854 4.60563 9.74447C4.60563 13.6153 3.48396 15.5778 1.2723 15.5778C1.05128 15.5778 0.839323 15.6656 0.683043 15.8219C0.526762 15.9782 0.438965 16.1901 0.438965 16.4111C0.438965 16.6321 0.526762 16.8441 0.683043 17.0004C0.839323 17.1567 1.05128 17.2445 1.2723 17.2445C4.49646 17.2445 6.2723 14.5778 6.2723 9.74447ZM17.689 20.0895C19.0604 16.8179 19.714 13.2902 19.6056 9.74447C19.6095 8.36024 19.2959 6.99356 18.689 5.74947C18.6411 5.65098 18.5743 5.56288 18.4924 5.49021C18.4104 5.41754 18.315 5.36171 18.2115 5.32592C18.108 5.29013 17.9985 5.27508 17.8891 5.28162C17.7798 5.28816 17.6729 5.31617 17.5744 5.36405C17.4759 5.41193 17.3878 5.47874 17.3151 5.56066C17.2424 5.64259 17.1866 5.73802 17.1508 5.84152C17.115 5.94502 17.1 6.05455 17.1065 6.16387C17.1131 6.27319 17.1411 6.38014 17.189 6.47863C17.6848 7.49578 17.9414 8.6129 17.939 9.74447C18.0439 13.0518 17.4419 16.3434 16.1731 19.3995C16.128 19.4993 16.1029 19.607 16.0994 19.7165C16.0959 19.8259 16.114 19.935 16.1527 20.0375C16.1914 20.14 16.2499 20.2338 16.3249 20.3137C16.3999 20.3935 16.4899 20.4578 16.5898 20.5028C16.6977 20.5524 16.8152 20.578 16.934 20.5778C17.0933 20.5771 17.2492 20.5308 17.383 20.4442C17.5168 20.3576 17.623 20.2345 17.689 20.0895ZM2.93896 12.2445V9.74447C2.94117 7.75602 3.73205 5.84965 5.1381 4.4436C6.54415 3.03756 8.45052 2.24667 10.439 2.24447C12.0626 2.23906 13.6433 2.76595 14.939 3.74447C15.1158 3.87708 15.338 3.93402 15.5568 3.90276C15.7756 3.8715 15.973 3.75461 16.1056 3.5778C16.2382 3.40099 16.2952 3.17874 16.2639 2.95995C16.2327 2.74116 16.1158 2.54374 15.939 2.41113C14.3551 1.21565 12.4233 0.57173 10.439 0.577801C8.00869 0.580668 5.67878 1.54736 3.96032 3.26582C2.24186 4.98428 1.27517 7.3142 1.2723 9.74447V12.2445C1.2723 12.4655 1.3601 12.6774 1.51638 12.8337C1.67266 12.99 1.88462 13.0778 2.10563 13.0778C2.32665 13.0778 2.53861 12.99 2.69489 12.8337C2.85117 12.6774 2.93896 12.4655 2.93896 12.2445Z" fill="white"/>
</g>
<defs>
<clipPath id="clip0_2002_1268">
<rect width="20" height="20" fill="white" transform="translate(0.438965 0.578857)"/>
</clipPath>
</defs>
</svg>
