<svg width="15" height="15" viewBox="0 0 15 15" fill="none" xmlns="http://www.w3.org/2000/svg">
<g id="fi-sr-interrogation" clip-path="url(#clip0_3190_15910)">
<path id="Vector" d="M7.50586 0.5C6.12139 0.5 4.76801 0.910543 3.61687 1.67971C2.46573 2.44888 1.56852 3.54213 1.03871 4.82122C0.508892 6.1003 0.370269 7.50777 0.640366 8.86563C0.910462 10.2235 1.57715 11.4708 2.55611 12.4497C3.53508 13.4287 4.78236 14.0954 6.14023 14.3655C7.4981 14.6356 8.90556 14.497 10.1846 13.9672C11.4637 13.4373 12.557 12.5401 13.3261 11.389C14.0953 10.2378 14.5059 8.88447 14.5059 7.5C14.5039 5.6441 13.7657 3.86479 12.4534 2.55247C11.1411 1.24015 9.36176 0.502007 7.50586 0.5V0.5ZM7.50586 12.1667C7.39049 12.1667 7.27771 12.1325 7.18178 12.0684C7.08585 12.0043 7.01108 11.9132 6.96693 11.8066C6.92278 11.7 6.91123 11.5827 6.93374 11.4695C6.95625 11.3564 7.0118 11.2524 7.09338 11.1709C7.17496 11.0893 7.2789 11.0337 7.39206 11.0112C7.50522 10.9887 7.6225 11.0003 7.72909 11.0444C7.83568 11.0886 7.92679 11.1633 7.99089 11.2593C8.05498 11.3552 8.0892 11.468 8.0892 11.5833C8.0892 11.738 8.02774 11.8864 7.91834 11.9958C7.80895 12.1052 7.66057 12.1667 7.50586 12.1667ZM8.6317 7.79517C8.45955 7.9028 8.31878 8.05386 8.22355 8.23317C8.12832 8.41247 8.08198 8.61369 8.0892 8.81658V9.25C8.0892 9.40471 8.02774 9.55308 7.91834 9.66248C7.80895 9.77188 7.66057 9.83333 7.50586 9.83333C7.35115 9.83333 7.20278 9.77188 7.09338 9.66248C6.98399 9.55308 6.92253 9.40471 6.92253 9.25V8.81658C6.91391 8.405 7.01561 7.9986 7.21707 7.63959C7.41853 7.28057 7.71241 6.98202 8.0682 6.77492C8.28372 6.65621 8.4562 6.4724 8.56097 6.24976C8.66574 6.02713 8.69744 5.77707 8.65153 5.53533C8.60608 5.30504 8.493 5.09351 8.32676 4.92779C8.16051 4.76206 7.94864 4.64965 7.7182 4.60492C7.55003 4.57379 7.37708 4.58002 7.21159 4.62315C7.0461 4.66629 6.89212 4.74528 6.76055 4.85453C6.62898 4.96379 6.52303 5.10063 6.45022 5.25538C6.37741 5.41012 6.3395 5.57898 6.3392 5.75C6.3392 5.90471 6.27774 6.05308 6.16834 6.16248C6.05895 6.27188 5.91057 6.33333 5.75586 6.33333C5.60115 6.33333 5.45278 6.27188 5.34338 6.16248C5.23399 6.05308 5.17253 5.90471 5.17253 5.75C5.17268 5.33846 5.28166 4.93428 5.48844 4.57846C5.69521 4.22264 5.99241 3.92784 6.3499 3.72396C6.70738 3.52008 7.11243 3.41437 7.52396 3.41756C7.93548 3.42075 8.33885 3.53273 8.69313 3.74213C9.04741 3.95153 9.34 4.25091 9.54123 4.6099C9.74246 4.96888 9.84517 5.3747 9.83893 5.78619C9.83269 6.19768 9.71773 6.6002 9.50571 6.95293C9.2937 7.30565 8.99216 7.59602 8.6317 7.79458V7.79517Z" fill="#9F9F9F"/>
</g>
<defs>
<clipPath id="clip0_3190_15910">
<rect width="14" height="14" fill="white" transform="translate(0.505859 0.5)"/>
</clipPath>
</defs>
</svg>
