<svg width="20" height="21" viewBox="0 0 20 21" fill="none" xmlns="http://www.w3.org/2000/svg">
<g id="Setting">
<path id="Path" d="M10.0117 13.3302C8.40726 13.3302 7.10938 12.0802 7.10938 10.5102C7.10938 8.94018 8.40726 7.68018 10.0117 7.68018C11.6162 7.68018 12.8834 8.94018 12.8834 10.5102C12.8834 12.0802 11.6162 13.3302 10.0117 13.3302Z" fill="white"/>
<path id="Path_2" opacity="0.4" d="M19.2301 12.87C19.036 12.57 18.76 12.27 18.4023 12.08C18.1162 11.94 17.9322 11.71 17.7687 11.44C17.2475 10.58 17.5541 9.45 18.4228 8.94C19.4447 8.37 19.7718 7.1 19.179 6.11L18.4943 4.93C17.9118 3.94 16.6344 3.59 15.6226 4.17C14.7233 4.65 13.5685 4.33 13.0473 3.48C12.8838 3.2 12.7918 2.9 12.8122 2.6C12.8429 2.21 12.7203 1.84 12.5363 1.54C12.1582 0.92 11.4735 0.5 10.7172 0.5H9.27627C8.53024 0.52 7.84553 0.92 7.4674 1.54C7.27323 1.84 7.16081 2.21 7.18125 2.6C7.20169 2.9 7.10972 3.2 6.9462 3.48C6.425 4.33 5.27019 4.65 4.38109 4.17C3.35913 3.59 2.09191 3.94 1.49917 4.93L0.814459 6.11C0.231943 7.1 0.55897 8.37 1.57071 8.94C2.43937 9.45 2.74596 10.58 2.23498 11.44C2.06125 11.71 1.87729 11.94 1.59115 12.08C1.24368 12.27 0.937094 12.57 0.773581 12.87C0.395456 13.49 0.415896 14.27 0.79402 14.92L1.49917 16.12C1.87729 16.76 2.58245 17.16 3.31825 17.16C3.66572 17.16 4.0745 17.06 4.40153 16.86C4.65702 16.69 4.96361 16.63 5.30085 16.63C6.31259 16.63 7.16081 17.46 7.18125 18.45C7.18125 19.6 8.12145 20.5 9.30692 20.5H10.6968C11.872 20.5 12.8122 19.6 12.8122 18.45C12.8429 17.46 13.6911 16.63 14.7029 16.63C15.0299 16.63 15.3365 16.69 15.6022 16.86C15.9292 17.06 16.3278 17.16 16.6855 17.16C17.411 17.16 18.1162 16.76 18.4943 16.12L19.2097 14.92C19.5776 14.25 19.6083 13.49 19.2301 12.87Z" fill="white"/>
</g>
</svg>
