<svg width="12" height="12" viewBox="0 0 12 12" fill="none" xmlns="http://www.w3.org/2000/svg">
<path d="M10.6018 4.99883H7.80176L7.80176 2.19883C7.80176 1.82753 7.65426 1.47143 7.39171 1.20888C7.12916 0.946328 6.77306 0.798828 6.40176 0.798828C6.03045 0.798828 5.67436 0.946328 5.41181 1.20888C5.14926 1.47143 5.00176 1.82753 5.00176 2.19883L5.05146 4.99883L2.20176 4.99883C1.83045 4.99883 1.47436 5.14633 1.21181 5.40888C0.949257 5.67143 0.801758 6.02752 0.801758 6.39883C0.801758 6.77013 0.949257 7.12623 1.21181 7.38878C1.47436 7.65133 1.83045 7.79883 2.20176 7.79883L5.05146 7.74913L5.00176 10.5988C5.00176 10.9701 5.14926 11.3262 5.41181 11.5888C5.67436 11.8513 6.03045 11.9988 6.40176 11.9988C6.77306 11.9988 7.12916 11.8513 7.39171 11.5888C7.65426 11.3262 7.80176 10.9701 7.80176 10.5988V7.74913L10.6018 7.79883C10.9731 7.79883 11.3292 7.65133 11.5917 7.38878C11.8543 7.12623 12.0018 6.77013 12.0018 6.39883C12.0018 6.02752 11.8543 5.67143 11.5917 5.40888C11.3292 5.14633 10.9731 4.99883 10.6018 4.99883Z" fill="url(#paint0_linear_110_1195)"/>
<defs>
<linearGradient id="paint0_linear_110_1195" x1="6.40176" y1="0.798828" x2="6.40176" y2="11.9988" gradientUnits="userSpaceOnUse">
<stop stop-color="#F0FDF2"/>
<stop offset="1" stop-color="#BBF7C6"/>
</linearGradient>
</defs>
</svg>
