<svg width="27" height="27" viewBox="0 0 27 27" fill="none" xmlns="http://www.w3.org/2000/svg">
<path d="M16.3613 19.4603V7.43727C16.3613 7.22446 16.2981 7.01644 16.1799 6.8395C16.0616 6.66257 15.8936 6.52467 15.697 6.44323C15.5003 6.3618 15.284 6.34049 15.0753 6.38199C14.8665 6.4235 14.6748 6.52596 14.5243 6.67642L8.51282 12.6879C8.31107 12.8897 8.19773 13.1634 8.19773 13.4488C8.19773 13.7341 8.31107 14.0078 8.51282 14.2096L14.5243 20.2211C14.6748 20.3716 14.8665 20.474 15.0753 20.5155C15.284 20.557 15.5003 20.5357 15.697 20.4543C15.8936 20.3729 16.0616 20.235 16.1799 20.058C16.2981 19.8811 16.3613 19.6731 16.3613 19.4603Z" fill="url(#paint0_linear_115_6708)"/>
<defs>
<linearGradient id="paint0_linear_115_6708" x1="12.2795" y1="6.36133" x2="12.2795" y2="20.5362" gradientUnits="userSpaceOnUse">
<stop stop-color="#F0FDF2"/>
<stop offset="1" stop-color="#BBF7C6"/>
</linearGradient>
</defs>
</svg>
