<svg width="54" height="54" viewBox="0 0 54 54" fill="none" xmlns="http://www.w3.org/2000/svg">
<g clip-path="url(#clip0_252_3964)">
<path d="M12.8668 54.0422V44.881H7.38281L11.9185 36.3727H19.2107V34.5003H20.5281V36.3727H26.3422V34.5H27.6596V36.3727H33.4736V34.5003H34.7911V36.3727H42.0832L46.6189 44.881H41.135V54.0422H12.8668ZM14.1828 52.7247H39.819V44.8795H30.4407L27.0023 38.4285L23.564 44.8795H14.1828V52.7247ZM31.2297 43.5636H44.4242L41.2928 37.6887H28.0983L31.2297 43.5636ZM9.57756 43.5636H22.7721L25.9035 37.6887H12.709L9.57756 43.5636Z" fill="#74FF92" stroke="#74FF92"/>
<path d="M41 14.5C41 21.9242 34.7642 28 27 28C19.2358 28 13 21.9242 13 14.5C13 7.07584 19.2358 1 27 1C34.7642 1 41 7.07584 41 14.5Z" stroke="#74FF92" stroke-width="2"/>
<circle cx="27.5" cy="14.5" r="6.5" stroke="#74FF92" stroke-width="2"/>
</g>
<defs>
<clipPath id="clip0_252_3964">
<rect width="54" height="54" fill="white"/>
</clipPath>
</defs>
</svg>
