<svg width="54" height="54" viewBox="0 0 54 54" fill="none" xmlns="http://www.w3.org/2000/svg">
<g clip-path="url(#clip0_833_2847)">
<path d="M0.703125 48.4523V39.0262L8.22797 34.6823V19.3289L0.703125 14.9836V5.5575L8.86641 0.84375L17.0297 5.5575V8.92266H37.0167V5.5575L45.1814 0.84375L53.3447 5.5575V14.9836L45.8198 19.3275V34.6809L53.3447 39.0248V48.4509L45.1814 53.1647L37.0181 48.4509V45.0084H17.0311V48.4509L8.86781 53.1647L0.703125 48.4523ZM1.98141 47.7141L8.22797 51.3211V44.1084L1.98141 40.5028V47.7155V47.7141ZM38.2964 47.7141L44.543 51.3211V44.1084L38.2964 40.5028V47.7155V47.7141ZM45.8213 44.1084V51.3211L52.0678 47.7141V40.5014L45.8213 44.107V44.1084ZM9.50625 44.1084V51.3211L15.7528 47.7141V40.5014L9.50625 44.107V44.1084ZM17.0311 43.7316H37.0181V39.0248L44.543 34.6809V19.3275L37.0181 14.9836V10.2009H17.0311V14.9836L9.50625 19.3275V34.6809L17.0311 39.0248V43.7316ZM38.9362 39.3947L45.1828 43.0017L51.4294 39.3947L45.1828 35.7891L38.9362 39.3947ZM2.62125 39.3947L8.86781 43.0017L15.1144 39.3947L8.86781 35.7891L2.62125 39.3947ZM1.98141 14.2453L8.22797 17.8523V10.6397L1.98141 7.03266V14.2453ZM45.8213 10.6397V17.8523L52.0678 14.2467V7.03406L45.8213 10.6397ZM38.2964 14.2453L44.543 17.8509V10.6383L38.2964 7.03266V14.2453ZM9.50625 10.6397V17.8523L15.7528 14.2467V7.03406L9.50625 10.6397ZM38.9362 5.92594L45.1828 9.53156L51.4294 5.92594L45.1828 2.31891L38.9362 5.92594ZM2.62125 5.92594L8.86781 9.53156L15.1144 5.92594L8.86641 2.32031L2.62125 5.92594Z" fill="#74FF92" stroke="#74FF92"/>
</g>
<defs>
<clipPath id="clip0_833_2847">
<rect width="54" height="54" fill="white"/>
</clipPath>
</defs>
</svg>
