<svg width="54" height="54" viewBox="0 0 54 54" fill="none" xmlns="http://www.w3.org/2000/svg">
<path d="M48.6036 48C46.3033 48 44.4308 46.1493 44.4308 43.8757C44.4308 42.0841 45.5907 40.5079 47.3173 39.9533L47.9716 39.7432V33.5596H40.8609L40.59 34.0415C37.7994 39.0128 32.507 42.1019 26.7757 42.1019C21.0444 42.1019 15.9548 39.124 13.128 34.3312L12.8544 33.8657H5.37004V40.2663H8.65103V48H0.826374V40.2663H4.10737V32.6164H12.1973L11.7862 31.3862C11.432 30.3263 11.193 29.2266 11.0764 28.1173L10.9888 27.2771H0.776367V26.0291H10.9763L11.05 25.1724C11.1458 24.0603 11.3611 22.9606 11.6917 21.9034L12.0709 20.6912H4.31851V13.2581L3.66425 13.0481C1.93624 12.492 0.776367 10.9159 0.776367 9.12427C0.776367 6.8507 2.64884 5 4.94915 5C7.24945 5 9.12193 6.8507 9.12193 9.12427C9.12193 10.9159 7.96205 12.492 6.23543 13.0467L5.58118 13.2568V19.4404H12.6918L12.9627 18.9585C15.752 13.9872 21.0457 10.8981 26.7771 10.8981C32.5084 10.8981 37.5979 13.876 40.4247 18.6688L40.6984 19.1343H48.1827V12.7337H44.9017V5H52.7264V12.7337H49.4454V20.3836H41.3554L41.7666 21.6138C42.1208 22.6737 42.3597 23.7734 42.4764 24.8827L42.5639 25.7229H52.7764V26.9709H42.5764L42.5028 27.829C42.4069 28.9397 42.1916 30.0394 41.861 31.0979L41.4818 32.3102H49.2342V39.7432L49.8885 39.9533C51.6151 40.5079 52.775 42.0841 52.775 43.8757C52.775 46.1493 50.9025 48 48.6022 48H48.6036ZM48.6022 40.9995C46.9978 40.9995 45.6921 42.29 45.6921 43.8757C45.6921 45.4615 46.9978 46.752 48.6022 46.752C50.2066 46.752 51.5123 45.4615 51.5123 43.8757C51.5123 42.29 50.2066 40.9995 48.6022 40.9995ZM2.09043 46.752H7.38836V41.5157H2.09043V46.752ZM26.7757 12.1474C18.769 12.1474 12.2543 18.5865 12.2543 26.5C12.2543 34.4135 18.769 40.8526 26.7757 40.8526C34.7823 40.8526 41.2971 34.4135 41.2971 26.5C41.2971 18.5865 34.7823 12.1474 26.7757 12.1474ZM4.94915 6.24799C3.34477 6.24799 2.03904 7.53854 2.03904 9.12427C2.03904 10.71 3.34477 12.0005 4.94915 12.0005C6.55353 12.0005 7.85926 10.71 7.85926 9.12427C7.85926 7.53854 6.55353 6.24799 4.94915 6.24799ZM46.1644 11.4857H51.4623V6.24799H46.1644V11.4843V11.4857Z" fill="#74FF92" stroke="#74FF92"/>
<path d="M26.9941 35.7958C22.1399 35.7958 18.1924 31.8469 18.1924 26.9941C18.1924 22.1413 22.1413 18.1924 26.9941 18.1924C31.8469 18.1924 35.7958 22.1413 35.7958 26.9941C35.7958 31.8469 31.8469 35.7958 26.9941 35.7958ZM26.9941 19.5048C22.8647 19.5048 19.5048 22.8647 19.5048 26.9941C19.5048 31.1235 22.8647 34.4833 26.9941 34.4833C31.1235 34.4833 34.4833 31.1235 34.4833 26.9941C34.4833 22.8647 31.1235 19.5048 26.9941 19.5048Z" fill="#74FF92" stroke="#74FF92" stroke-width="0.931035"/>
</svg>
