<svg width="54" height="54" viewBox="0 0 54 54" fill="none" xmlns="http://www.w3.org/2000/svg">
<g clip-path="url(#clip0_833_2853)">
<path d="M40.3308 45.7696L35.9277 40.3308L40.3308 34.8921L44.7312 40.3308L40.3308 45.7696Z" stroke="#74FF92" stroke-width="2.5" stroke-linecap="round" stroke-linejoin="round"/>
<path d="M40.3317 51.9996C46.7769 51.9996 52.0005 46.7759 52.0005 40.328C52.0005 33.8802 46.7769 28.6592 40.3317 28.6592C33.8864 28.6592 28.6602 33.8855 28.6602 40.328C28.6602 46.7706 33.8838 51.9996 40.3317 51.9996Z" stroke="#74FF92" stroke-width="2.5" stroke-linecap="round" stroke-linejoin="round"/>
<path d="M40.3314 51.9998H2V12.9965L12.997 1.99951H40.3314V28.6594" stroke="#74FF92" stroke-width="2.5" stroke-linecap="round" stroke-linejoin="round"/>
<path d="M12.997 1.99951V12.9965H2L12.997 1.99951Z" stroke="#74FF92" stroke-width="2.5" stroke-linecap="round" stroke-linejoin="round"/>
<path d="M12.997 1.99951L2 12.9965" stroke="#74FF92" stroke-width="2.5" stroke-linecap="round" stroke-linejoin="round"/>
<path d="M21.166 52.0002V27" stroke="#74FF92" stroke-width="2.5" stroke-linecap="round" stroke-linejoin="round"/>
<path d="M21.1898 26.9997C22.9107 26.9997 24.3022 25.6055 24.3022 23.8873C24.3022 22.1691 22.9107 20.7749 21.1898 20.7749C19.469 20.7749 18.0801 22.1691 18.0801 23.8873C18.0801 25.6055 19.4716 26.9997 21.1898 26.9997Z" stroke="#74FF92" stroke-width="2.5" stroke-linecap="round" stroke-linejoin="round"/>
<path d="M11.4405 35.4021C13.1587 35.4021 14.5503 34.0078 14.5503 32.2897C14.5503 30.5715 13.1587 29.1772 11.4405 29.1772C9.72233 29.1772 8.32812 30.5715 8.32812 32.2897C8.32812 34.0078 9.71968 35.4021 11.4405 35.4021Z" stroke="#74FF92" stroke-width="2.5" stroke-linecap="round" stroke-linejoin="round"/>
<path d="M19.2197 8.22461H34.1577" stroke="#74FF92" stroke-width="2.5" stroke-linecap="round" stroke-linejoin="round"/>
<path d="M19.2197 14.4492H34.1577" stroke="#74FF92" stroke-width="2.5" stroke-linecap="round" stroke-linejoin="round"/>
<path d="M11.4404 35.4023V41.2129L20.7484 46.803" stroke="#74FF92" stroke-width="2.5" stroke-linecap="round" stroke-linejoin="round"/>
</g>
<defs>
<clipPath id="clip0_833_2853">
<rect width="54" height="54" fill="white"/>
</clipPath>
</defs>
</svg>
