<svg width="54" height="54" viewBox="0 0 54 54" fill="none" xmlns="http://www.w3.org/2000/svg">
<g clip-path="url(#clip0_833_2839)">
<path d="M35.27 51.2234C31.0812 51.2234 27.1167 49.6023 24.1098 46.6589C21.1072 43.7211 19.3922 39.7965 19.2779 35.6072L19.2525 34.6926L18.3414 34.6671C14.1682 34.5525 10.2587 32.8309 7.33216 29.8167C4.40002 26.7968 2.78516 22.8184 2.78516 18.6135C2.78657 9.75919 9.96248 2.55566 18.7843 2.55566C22.9731 2.55566 26.9376 4.17674 29.9445 7.12016C32.9471 10.0579 34.6621 13.9825 34.7764 18.1718L34.8018 19.0864L35.7128 19.1119C39.8861 19.2266 43.7956 20.9482 46.7221 23.9624C49.6543 26.9822 51.2691 30.9606 51.2691 35.1655C51.2691 44.0212 44.0918 51.2248 35.2714 51.2248L35.27 51.2234ZM35.27 20.3861C27.1534 20.3861 20.5486 27.0148 20.5486 35.1641C20.5486 43.3134 27.152 49.9421 35.27 49.9421C43.388 49.9421 49.9913 43.3134 49.9913 35.1641C49.9913 27.0162 43.388 20.3861 35.27 20.3861ZM18.7843 3.83695C10.6677 3.83695 4.06294 10.4657 4.06294 18.6149C4.06294 26.7642 10.545 33.2443 18.5121 33.3887L19.3456 33.4043L19.4796 32.5788C19.7067 31.1772 20.1185 29.8138 20.7038 28.5254L21.4061 26.978L19.7222 27.1649C19.4048 27.2003 19.0847 27.2187 18.7716 27.2187C14.0398 27.2187 10.1895 23.3536 10.1895 18.6036C10.1895 13.8536 14.0398 9.98855 18.7716 9.98855C23.5034 9.98855 27.3536 13.8536 27.3536 18.6036C27.3536 18.9179 27.3353 19.2393 27.3 19.5579L27.1139 21.2483L28.6554 20.5432C29.9402 19.9557 31.2984 19.5423 32.6933 19.3143L33.5155 19.1798L33.5 18.3431C33.3547 10.3453 26.7528 3.83837 18.7829 3.83837L18.7843 3.83695ZM18.7716 11.2698C14.7436 11.2698 11.4659 14.5587 11.4659 18.6036C11.4659 22.6485 14.7436 25.936 18.7716 25.936C22.7996 25.936 26.0759 22.6457 26.0759 18.6036C26.0759 14.5615 22.7982 11.2698 18.7716 11.2698Z" fill="#74FF92" stroke="#74FF92"/>
<path d="M4.43141 53.5001V41.6967L1.90263 44.2352L1 43.3277L5.0703 39.2417L9.1406 43.3277L8.23656 44.2352L5.70919 41.6967V52.2174H17.7565V53.5001H4.43141Z" fill="#74FF92" stroke="#74FF92"/>
<path d="M44.86 10.671L45.7627 9.76491L48.2914 12.3034V1.7827H36.2441V0.5H49.5692V12.3034L52.0966 9.76491L53.0006 10.671L48.9303 14.757L44.86 10.671Z" fill="#74FF92" stroke="#74FF92"/>
<circle cx="35" cy="35" r="8" stroke="#74FF92" stroke-width="2"/>
</g>
<defs>
<clipPath id="clip0_833_2839">
<rect width="54" height="54" fill="white"/>
</clipPath>
</defs>
</svg>
