<svg width="54" height="54" viewBox="0 0 54 54" fill="none" xmlns="http://www.w3.org/2000/svg">
<g clip-path="url(#clip0_833_2845)">
<path d="M49.7132 49.5529C47.3222 49.5529 45.3759 47.6066 45.3759 45.2156C45.3759 43.3314 46.5815 41.6738 48.3762 41.0905L49.0563 40.8696V34.3665H41.6652L41.3836 34.8733C38.4829 40.1015 32.9819 43.3502 27.0245 43.3502C21.0672 43.3502 15.777 40.2184 12.8387 35.178L12.5543 34.6885H4.77481V41.4197H8.18519V49.5529H0.0519786V41.4197H3.46235V33.3746H11.8713L11.444 32.0809C11.0758 30.9662 10.8274 29.8097 10.7062 28.6431L10.6152 27.7595H0V26.447H10.6022L10.6787 25.546C10.7783 24.3765 11.0021 23.22 11.3458 22.1082L11.7399 20.8333H3.68182V13.0163L3.00176 12.7954C1.20562 12.2106 0 10.5531 0 8.66887C0 6.27785 1.94631 4.33154 4.33733 4.33154C6.72834 4.33154 8.67465 6.27785 8.67465 8.66887C8.67465 10.5531 7.46904 12.2106 5.67433 12.7939L4.99428 13.0149V19.518H12.3853L12.6669 19.0112C15.5676 13.783 21.0687 10.5343 27.026 10.5343C32.9833 10.5343 38.2736 13.666 41.2118 18.7065L41.4963 19.196H49.2757V12.4648H45.8653V4.33154H53.9986V12.4648H50.5882V20.5099H42.1792L42.6066 21.8036C42.9748 22.9182 43.2231 24.0748 43.3444 25.2414L43.4353 26.125H54.0505V27.4375H43.4483L43.3718 28.3399C43.2722 29.508 43.0484 30.6645 42.7048 31.7777L42.3106 33.0526H50.3687V40.8696L51.0488 41.0905C52.8435 41.6738 54.0491 43.3314 54.0491 45.2156C54.0491 47.6066 52.1028 49.5529 49.7118 49.5529H49.7132ZM49.7118 42.1907C48.0441 42.1907 46.6869 43.548 46.6869 45.2156C46.6869 46.8833 48.0441 48.2405 49.7118 48.2405C51.3794 48.2405 52.7366 46.8833 52.7366 45.2156C52.7366 43.548 51.3794 42.1907 49.7118 42.1907ZM1.36588 48.2405H6.87273V42.7336H1.36588V48.2405ZM20.0825 32.3567C18.4105 33.018 17.3291 34.6062 17.3291 36.4038V38.5104L17.7045 38.8064C20.3886 40.9187 23.6113 42.0348 27.0245 42.0348C30.4378 42.0348 33.6605 40.9187 36.3446 38.8064L36.72 38.5104V36.4038C36.72 34.6062 35.64 33.0165 33.9666 32.3567L27.0231 29.6148L20.0811 32.3567H20.0825ZM27.0245 18.3687C29.6596 18.3687 31.8037 20.5128 31.8037 23.1478V24.7736C31.8037 26.0167 31.3243 27.1964 30.4551 28.0944L29.43 29.1542L34.4503 31.1366C36.1511 31.808 37.3899 33.1999 37.8476 34.9542L38.405 37.0882L39.6221 35.2487C41.2551 32.7783 42.1186 29.9065 42.1186 26.9422C42.1186 18.6199 35.3469 11.8482 27.0245 11.8482C18.7022 11.8482 11.9305 18.6199 11.9305 26.9422C11.9305 29.9065 12.794 32.7783 14.427 35.2487L15.6441 37.0882L16.2014 34.9542C16.6591 33.1999 17.898 31.808 19.5988 31.1366L24.6191 29.1542L23.594 28.0944C22.7248 27.1964 22.2454 26.0167 22.2454 24.7736V23.1478C22.2454 20.5128 24.3895 18.3687 27.0245 18.3687ZM27.0245 19.6811C25.1143 19.6811 23.5593 21.2361 23.5593 23.1464V24.7721C23.5593 26.6823 25.1143 28.2374 27.0245 28.2374C28.9348 28.2374 30.4898 26.6823 30.4898 24.7721V23.1464C30.4898 21.2361 28.9348 19.6811 27.0245 19.6811ZM4.33733 5.644C2.66968 5.644 1.31246 7.00122 1.31246 8.66887C1.31246 10.3365 2.66968 11.6937 4.33733 11.6937C6.00497 11.6937 7.36219 10.3365 7.36219 8.66887C7.36219 7.00122 6.00497 5.644 4.33733 5.644ZM47.1778 11.1523H52.6847V5.644H47.1778V11.1508V11.1523Z" fill="#74FF92" stroke="#74FF92"/>
</g>
<defs>
<clipPath id="clip0_833_2845">
<rect width="54" height="54" fill="white"/>
</clipPath>
</defs>
</svg>
