<svg width="54" height="54" viewBox="0 0 54 54" fill="none" xmlns="http://www.w3.org/2000/svg">
<g clip-path="url(#clip0_833_2866)">
<path d="M0.974609 48.11V38.4749L9.31956 33.6566L17.6645 38.4749V42.7086L26.3824 38.8882V30.6226L25.5279 30.5363C21.8982 30.1703 18.5385 28.4738 16.0654 25.7571C13.5769 23.0223 12.2061 19.483 12.2061 15.7935C12.2061 7.62113 18.8531 0.974121 27.024 0.974121C30.9752 0.974121 34.6954 2.51757 37.497 5.31917C40.2986 8.12077 41.842 11.8409 41.842 15.7921C41.842 19.4858 40.4698 23.0264 37.9771 25.7626C35.5012 28.4807 32.1359 30.1759 28.5021 30.5377L27.6462 30.6226V38.8785L36.3836 42.6919V38.4735L44.7285 33.6553L53.0735 38.4735V48.1086L44.7285 52.9269L36.3836 48.1086V44.0725L27.024 39.9877L17.6631 44.0892V48.1086L9.31817 52.9269L0.974609 48.11ZM45.3632 43.6564V51.0995L51.8098 47.3779V39.9348L45.3632 43.6564ZM37.6501 47.3793L44.0967 51.1009V43.6578L37.6501 39.9362V47.3793ZM9.95281 43.6564V51.0995L16.3994 47.3779V39.9348L9.95281 43.6564ZM2.23971 47.3793L8.68631 51.1009V43.6578L2.23971 39.9362V47.3793ZM38.2833 38.8395L44.7299 42.5611L51.1765 38.8395L44.7299 35.118L38.2833 38.8395ZM2.87296 38.8395L9.31956 42.5611L15.7662 38.8395L9.31956 35.118L2.87296 38.8395ZM27.6573 29.3742L28.7248 29.2392C34.868 28.4668 39.6987 23.636 40.4712 17.4928L40.6062 16.4254V15.1603L40.4712 14.0928C39.6987 7.94958 34.868 3.11881 28.7248 2.34639L27.6573 2.21139H26.3922L25.3247 2.34639C19.1815 3.11881 14.3507 7.94958 13.5783 14.0928L13.4447 15.1603V16.4254L13.5783 17.4928C14.3507 23.636 19.1815 28.4668 25.3247 29.2392L26.3922 29.3742H27.6573Z" fill="#74FF92" stroke="#74FF92"/>
<circle cx="27.0704" cy="15.6573" r="6.8634" stroke="#74FF92" stroke-width="2"/>
</g>
<defs>
<clipPath id="clip0_833_2866">
<rect width="54" height="54" fill="white"/>
</clipPath>
</defs>
</svg>
