<svg width="20" height="21" viewBox="0 0 20 21" fill="none" xmlns="http://www.w3.org/2000/svg">
<g clip-path="url(#clip0_711_60)">
<path d="M4.97667 19.0698C4.79451 19.0697 4.61739 19.01 4.47241 18.8997C4.32744 18.7894 4.22259 18.6347 4.17391 18.4591C4.12523 18.2836 4.1354 18.097 4.20287 17.9278C4.27034 17.7586 4.39139 17.6161 4.5475 17.5223C7.5 15.7489 7.5 11.9406 7.5 9.66561C7.5 9.00257 7.76339 8.36668 8.23223 7.89784C8.70107 7.429 9.33696 7.16561 10 7.16561C10.663 7.16561 11.2989 7.429 11.7678 7.89784C12.2366 8.36668 12.5 9.00257 12.5 9.66561C12.5 9.88663 12.4122 10.0986 12.2559 10.2549C12.0996 10.4111 11.8877 10.4989 11.6667 10.4989C11.4457 10.4989 11.2337 10.4111 11.0774 10.2549C10.9211 10.0986 10.8333 9.88663 10.8333 9.66561C10.8333 9.4446 10.7455 9.23264 10.5893 9.07636C10.433 8.92008 10.221 8.83228 10 8.83228C9.77899 8.83228 9.56702 8.92008 9.41074 9.07636C9.25446 9.23264 9.16667 9.4446 9.16667 9.66561C9.16667 12.1214 9.16667 16.6939 5.405 18.9514C5.27556 19.0289 5.12752 19.0698 4.97667 19.0698ZM9.1125 20.2539C11.0142 18.3373 12.125 15.6423 12.4133 12.2364C12.4231 12.1272 12.4111 12.0171 12.3782 11.9125C12.3453 11.8078 12.292 11.7107 12.2215 11.6267C12.151 11.5427 12.0645 11.4735 11.9672 11.423C11.8698 11.3724 11.7635 11.3416 11.6542 11.3323C11.5448 11.3211 11.4343 11.332 11.3293 11.3644C11.2242 11.3967 11.1268 11.4499 11.0427 11.5208C10.9587 11.5916 10.8897 11.6786 10.84 11.7767C10.7903 11.8747 10.7608 11.9818 10.7533 12.0914C10.4942 15.1389 9.57083 17.4248 7.93 19.0756C7.77419 19.2324 7.68704 19.4447 7.68775 19.6658C7.68845 19.8868 7.77694 20.0985 7.93375 20.2544C8.09056 20.4102 8.30284 20.4973 8.5239 20.4966C8.74496 20.4959 8.95669 20.4074 9.1125 20.2506V20.2539ZM13.4458 20.0989C13.9513 19.259 14.3723 18.3711 14.7025 17.4481C14.7715 17.2417 14.7571 17.0164 14.6622 16.8205C14.5673 16.6247 14.3995 16.4737 14.1948 16.3998C13.99 16.326 13.7645 16.3353 13.5664 16.4256C13.3684 16.5159 13.2135 16.6801 13.135 16.8831C12.8416 17.7015 12.4681 18.4889 12.02 19.2339C11.9632 19.3276 11.9254 19.4315 11.9088 19.5397C11.8921 19.6479 11.8969 19.7584 11.923 19.8647C11.949 19.9711 11.9958 20.0713 12.0605 20.1596C12.1253 20.2479 12.2068 20.3226 12.3004 20.3794C12.4895 20.4941 12.7164 20.529 12.9312 20.4764C13.0376 20.4503 13.1378 20.4036 13.2261 20.3388C13.3144 20.2741 13.389 20.1926 13.4458 20.0989ZM15.4167 14.8248C15.7254 13.123 15.865 11.3949 15.8333 9.66561C15.8325 8.48503 15.4736 7.33247 14.8038 6.36024C14.1341 5.38802 13.1851 4.6419 12.0823 4.22048C10.9795 3.79906 9.77473 3.72218 8.6273 3.99999C7.47987 4.27781 6.44374 4.89725 5.65583 5.77644C5.5791 5.85728 5.51936 5.95269 5.48015 6.05702C5.44094 6.16135 5.42306 6.27249 5.42757 6.38386C5.43208 6.49522 5.45888 6.60455 5.50638 6.70538C5.55389 6.8062 5.62114 6.89647 5.70416 6.97084C5.78717 7.04521 5.88426 7.10218 5.98968 7.13836C6.0951 7.17455 6.20671 7.18922 6.3179 7.1815C6.42909 7.17379 6.5376 7.14385 6.63701 7.09345C6.73642 7.04306 6.82472 6.97323 6.89667 6.88811C7.4594 6.26001 8.19948 5.81745 9.01909 5.61892C9.8387 5.42038 10.6993 5.47523 11.487 5.7762C12.2748 6.07717 12.9527 6.6101 13.4312 7.30455C13.9096 7.99901 14.1661 8.8223 14.1667 9.66561C14.1974 11.2879 14.0684 12.9094 13.7817 14.5064C13.7396 14.7232 13.7853 14.9479 13.9087 15.131C14.0322 15.3141 14.2232 15.4408 14.44 15.4831C14.493 15.4937 14.5468 15.499 14.6008 15.4989C14.7939 15.4984 14.9807 15.431 15.1295 15.308C15.2783 15.185 15.3798 15.0142 15.4167 14.8248ZM5.83333 9.66561C5.83309 9.43302 5.85233 9.20082 5.89083 8.97144C5.91572 8.86102 5.91784 8.74668 5.89708 8.63541C5.87632 8.52413 5.8331 8.41825 5.77007 8.32423C5.70704 8.23021 5.62552 8.15001 5.53047 8.08854C5.43543 8.02706 5.32885 7.98559 5.21725 7.96666C5.10565 7.94773 4.99136 7.95173 4.88136 7.97843C4.77136 8.00512 4.66795 8.05395 4.57744 8.12193C4.48693 8.1899 4.41121 8.27561 4.35492 8.37381C4.29862 8.47201 4.26292 8.58066 4.25 8.69311C4.19499 9.01437 4.16711 9.33968 4.16667 9.66561C4.16667 13.5364 3.045 15.4989 0.833333 15.4989C0.61232 15.4989 0.400358 15.5867 0.244078 15.743C0.0877974 15.8993 0 16.1113 0 16.3323C0 16.5533 0.0877974 16.7653 0.244078 16.9215C0.400358 17.0778 0.61232 17.1656 0.833333 17.1656C4.0575 17.1656 5.83333 14.4989 5.83333 9.66561ZM17.25 20.0106C18.6214 16.739 19.275 13.2113 19.1667 9.66561C19.1705 8.28138 18.8569 6.9147 18.25 5.67061C18.2021 5.57212 18.1353 5.48402 18.0534 5.41135C17.9715 5.33868 17.876 5.28285 17.7725 5.24706C17.669 5.21128 17.5595 5.19622 17.4502 5.20276C17.3409 5.20931 17.2339 5.23732 17.1354 5.28519C17.0369 5.33307 16.9488 5.39988 16.8762 5.4818C16.8035 5.56373 16.7477 5.65916 16.7119 5.76266C16.6761 5.86616 16.661 5.9757 16.6676 6.08501C16.6741 6.19433 16.7021 6.30129 16.75 6.39978C17.2459 7.41692 17.5024 8.53404 17.5 9.66561C17.6049 12.9729 17.0029 16.2645 15.7342 19.3206C15.689 19.4204 15.6639 19.5281 15.6604 19.6376C15.6569 19.7471 15.6751 19.8562 15.7138 19.9587C15.7525 20.0611 15.811 20.155 15.886 20.2348C15.961 20.3147 16.051 20.3789 16.1508 20.4239C16.2588 20.4736 16.3762 20.4992 16.495 20.4989C16.6544 20.4983 16.8102 20.4519 16.944 20.3653C17.0778 20.2788 17.184 20.1557 17.25 20.0106ZM2.5 12.1656V9.66561C2.50221 7.67716 3.29309 5.77079 4.69914 4.36475C6.10518 2.9587 8.01155 2.16782 10 2.16561C11.6236 2.1602 13.2043 2.68709 14.5 3.66561C14.6768 3.79822 14.8991 3.85516 15.1179 3.8239C15.3366 3.79265 15.5341 3.67576 15.6667 3.49894C15.7993 3.32213 15.8562 3.09989 15.825 2.88109C15.7937 2.6623 15.6768 2.46489 15.5 2.33228C13.9161 1.1368 11.9844 0.492872 10 0.498944C7.56973 0.501811 5.23982 1.4685 3.52135 3.18696C1.80289 4.90543 0.8362 7.23534 0.833333 9.66561V12.1656C0.833333 12.3866 0.921131 12.5986 1.07741 12.7549C1.23369 12.9111 1.44565 12.9989 1.66667 12.9989C1.88768 12.9989 2.09964 12.9111 2.25592 12.7549C2.4122 12.5986 2.5 12.3866 2.5 12.1656Z" fill="white"/>
</g>
<defs>
<clipPath id="clip0_711_60">
<rect width="20" height="20" fill="white" transform="translate(0 0.5)"/>
</clipPath>
</defs>
</svg>
