<svg width="210" height="44" viewBox="0 0 210 44" fill="none" xmlns="http://www.w3.org/2000/svg">
<path fill-rule="evenodd" clip-rule="evenodd" d="M35.3069 26.9039L35.4393 24.4983H35.4429C35.4429 15.7208 29.0029 8.44677 20.5905 7.14017H20.5797C20.254 7.09005 19.9282 7.04709 19.5953 7.01487L12.3892 6.10562C8.55889 5.62235 4.85742 4.41956 1.47454 2.56167L0.332596 1.93164C0.332596 1.93164 4.19158 10.7414 15.0275 13.0503C25.55 15.2928 25.7903 23.566 25.7953 24.0509C25.7936 24.0159 25.7917 23.981 25.7896 23.9461C25.7473 22.8653 25.0922 15.1961 15.0245 13.0539C4.18857 10.7414 0.32959 1.9352 0.32959 1.9352V6.93252C0.32959 10.1328 1.18515 13.1326 2.68149 15.7172C4.42126 18.7242 7.02733 21.1692 10.1596 22.7049C10.9507 19.1681 14.1081 16.5226 17.8847 16.5226C22.0937 16.5226 25.5334 19.8031 25.7896 23.9461C25.7922 24.014 25.7924 24.0558 25.7924 24.0687L25.7954 24.0657C25.7954 24.0669 25.7954 24.0679 25.7954 24.0688C25.8026 24.1904 25.8026 24.3156 25.8026 24.4408V24.4411C25.8026 28.8155 22.2586 32.3595 17.8842 32.3595C13.8641 32.3595 10.5421 29.3596 10.0338 25.4792C9.43593 25.2572 8.85243 25.0067 8.28325 24.7346C5.53757 23.4244 3.09975 21.5701 1.1094 19.3149C0.604658 20.9508 0.332596 22.6906 0.332596 24.4948C0.332596 34.1994 8.19733 42.0677 17.8985 42.0677C26.787 42.0677 34.1327 35.4703 35.3069 26.9039Z" fill="url(#paint0_linear_113_1197)"/>
<path fill-rule="evenodd" clip-rule="evenodd" d="M17.8809 35.0664C24.0667 35.0664 29.0819 30.0512 29.0819 23.8654V23.8618C29.0819 17.676 24.0667 12.668 17.8809 12.668C16.8929 12.668 15.9263 12.7968 15.0135 13.0367L15.0172 13.0391C11.2085 14.0452 8.19458 17.0127 7.11712 20.7927C8.05859 21.523 9.07881 22.1674 10.1599 22.7007C10.951 19.1675 14.1119 16.5221 17.885 16.5221C22.0908 16.5221 25.525 19.7942 25.7891 23.9362C25.7918 24.0059 25.7921 24.049 25.7921 24.0623C25.7993 24.1912 25.7993 24.3164 25.7993 24.4382C25.7993 28.8162 22.2589 32.3565 17.8809 32.3565C13.8608 32.3565 10.5424 29.3603 10.0341 25.4799C9.43625 25.2579 8.85276 25.0073 8.28358 24.7317C7.73946 24.474 7.20607 24.1912 6.68701 23.894C6.70491 30.0691 11.6951 35.0664 17.8809 35.0664ZM18.596 14.1808C17.5615 13.7217 16.3784 13.333 15.0251 13.044L15.0283 13.0462C16.3802 13.3348 17.5623 13.7227 18.596 14.1808Z" fill="url(#paint1_linear_113_1197)"/>
<path d="M18.0161 29.6142C20.9889 29.6142 23.3988 27.2042 23.3988 24.2314C23.3988 21.2586 20.9889 18.8486 18.0161 18.8486C15.0433 18.8486 12.6333 21.2586 12.6333 24.2314C12.6333 27.2042 15.0433 29.6142 18.0161 29.6142Z" fill="url(#paint2_linear_113_1197)"/>
<path d="M62.6063 22.3463C62.6063 23.7456 62.3489 25.0513 61.8388 26.268C61.3193 27.4848 60.5706 28.5799 59.5925 29.5393C58.605 30.4986 57.4725 31.2287 56.2089 31.7435C54.9313 32.2629 53.6116 32.5203 52.2498 32.5203C50.8879 32.5203 49.5355 32.2629 48.2719 31.7435C47.0083 31.224 45.8852 30.4986 44.9258 29.5393C43.929 28.5799 43.1708 27.4848 42.6514 26.2587C42.1319 25.0325 41.8745 23.7269 41.8745 22.3463C41.8745 20.9657 42.1319 19.6601 42.6514 18.4339C43.1708 17.2172 43.929 16.1221 44.9258 15.1534C45.8852 14.2033 47.0083 13.4639 48.2719 12.9491C49.5401 12.439 50.8599 12.1816 52.2498 12.1816C53.0173 12.1816 53.7848 12.2659 54.5242 12.4297C53.2887 13.1972 52.4604 14.5684 52.4604 16.1314C52.4604 16.314 52.4697 16.4871 52.4884 16.6603C52.4136 16.6509 52.334 16.6509 52.2498 16.6509C50.7803 16.6509 49.5729 17.1985 48.6135 18.2795C47.6541 19.3559 47.1768 20.7177 47.1768 22.3463C47.1768 23.9749 47.6448 25.3789 48.5948 26.4412C49.5355 27.5035 50.7522 28.0417 52.2498 28.0417C53.7473 28.0417 54.9267 27.5035 55.886 26.4318C56.8454 25.3461 57.3227 23.9936 57.3227 22.3463C57.3227 21.6864 57.2385 21.0593 57.0747 20.4931C59.0683 20.3854 60.711 18.9487 61.1134 17.0487C61.3895 17.4886 61.6329 17.9519 61.8341 18.4293C62.3536 19.646 62.611 20.9611 62.611 22.3416L62.6063 22.3463Z" fill="#4ADE68"/>
<path d="M65.9139 32.0047V12.6113H71.0149L78.3389 22.5841C78.4793 22.7854 78.7133 23.1972 79.0315 23.8102C79.3544 24.4233 79.7101 25.1534 80.0985 26.0004C79.9909 25.1955 79.916 24.4795 79.8645 23.857C79.8131 23.2346 79.7897 22.673 79.7897 22.1863V12.6113H84.8626V32.0047H79.7897L72.4657 21.9898C72.3159 21.7885 72.0772 21.3767 71.759 20.7637C71.4361 20.1506 71.0851 19.4299 70.706 18.5969C70.8137 19.4112 70.8886 20.1272 70.9354 20.7543C70.9822 21.3814 71.0102 21.9383 71.0102 22.425V32H65.9092L65.9139 32.0047Z" fill="#4ADE68"/>
<path d="M89.1641 32.0047V12.6113H94.5038V32.0047H89.1641Z" fill="#4ADE68"/>
<path d="M107.698 32.0047H102.747V12.6113H108.269C110.431 12.6113 111.952 12.719 112.823 12.9296C113.698 13.1402 114.437 13.5052 115.05 14.0153C115.766 14.605 116.309 15.3444 116.688 16.2335C117.067 17.1227 117.25 18.1055 117.25 19.1959C117.25 20.3518 117.063 21.372 116.693 22.2472C116.323 23.127 115.776 23.8477 115.05 24.4139C114.503 24.8398 113.857 25.144 113.118 25.3265C112.378 25.509 111.19 25.6026 109.556 25.6026H107.703V32L107.698 32.0047ZM107.698 21.3393H108.705C109.977 21.3393 110.862 21.1661 111.367 20.8151C111.868 20.4641 112.121 19.8745 112.121 19.0321C112.121 18.1897 111.873 17.6422 111.377 17.2959C110.881 16.9496 110.006 16.7811 108.756 16.7811H107.694V21.3393H107.698Z" fill="white"/>
<path d="M119.63 32.0058V18.6261H124.08V21.7803C124.539 20.6338 125.166 19.7727 125.962 19.197C126.757 18.6214 127.716 18.3359 128.849 18.3359C129.036 18.3359 129.223 18.3406 129.411 18.3547C129.602 18.3687 129.794 18.3874 129.986 18.4155L129.537 22.7069C129.256 22.6087 128.975 22.5385 128.704 22.4963C128.433 22.4542 128.166 22.4308 127.908 22.4308C126.762 22.4308 125.877 22.7818 125.25 23.4838C124.628 24.1858 124.314 25.1826 124.314 26.4695V32.0058H119.625H119.63Z" fill="white"/>
<path d="M145.909 25.3551C145.909 26.3192 145.721 27.2318 145.347 28.0975C144.973 28.9633 144.425 29.7402 143.709 30.4281C142.984 31.116 142.174 31.6402 141.28 31.9912C140.386 32.3422 139.432 32.52 138.426 32.52C137.419 32.52 136.441 32.3422 135.543 31.9912C134.644 31.6402 133.844 31.116 133.137 30.4281C132.431 29.7589 131.892 28.9867 131.523 28.1163C131.153 27.2458 130.966 26.3285 130.966 25.3551C130.966 24.3817 131.148 23.4504 131.513 22.5893C131.878 21.7236 132.421 20.9467 133.137 20.2588C133.835 19.5802 134.63 19.0654 135.529 18.7238C136.423 18.3775 137.391 18.209 138.421 18.209C139.45 18.209 140.414 18.3821 141.308 18.7238C142.202 19.0701 142.998 19.5802 143.704 20.2588C144.43 20.9561 144.977 21.7376 145.347 22.6034C145.717 23.4691 145.904 24.3864 145.904 25.3598L145.909 25.3551ZM141.219 25.3551C141.219 24.3583 140.967 23.5721 140.466 22.9965C139.961 22.4209 139.282 22.1354 138.426 22.1354C137.569 22.1354 136.876 22.4209 136.38 22.9965C135.88 23.5721 135.632 24.3583 135.632 25.3551C135.632 26.3519 135.88 27.1382 136.376 27.7044C136.867 28.2754 137.555 28.5608 138.43 28.5608C139.305 28.5608 139.979 28.2754 140.475 27.7044C140.971 27.1335 141.224 26.3519 141.224 25.3551H141.219Z" fill="white"/>
<path d="M149.352 32.0059V21.9675H147.354V18.6308H149.352V14.6436H153.999V18.6308H155.997V21.9675H153.999V32.0059H149.352Z" fill="white"/>
<path d="M172.387 25.3551C172.387 26.3192 172.2 27.2318 171.826 28.0975C171.451 28.9633 170.904 29.7402 170.188 30.4281C169.462 31.116 168.653 31.6402 167.759 31.9912C166.865 32.3422 165.91 32.52 164.904 32.52C163.898 32.52 162.92 32.3422 162.021 31.9912C161.123 31.6402 160.322 31.116 159.616 30.4281C158.909 29.7589 158.371 28.9867 158.001 28.1163C157.632 27.2458 157.444 26.3285 157.444 25.3551C157.444 24.3817 157.627 23.4504 157.992 22.5893C158.357 21.7236 158.9 20.9467 159.616 20.2588C160.313 19.5802 161.109 19.0654 162.007 18.7238C162.901 18.3775 163.87 18.209 164.899 18.209C165.929 18.209 166.893 18.3821 167.787 18.7238C168.681 19.0701 169.476 19.5802 170.183 20.2588C170.908 20.9561 171.456 21.7376 171.826 22.6034C172.195 23.4691 172.382 24.3864 172.382 25.3598L172.387 25.3551ZM167.698 25.3551C167.698 24.3583 167.445 23.5721 166.944 22.9965C166.439 22.4209 165.76 22.1354 164.904 22.1354C164.048 22.1354 163.355 22.4209 162.859 22.9965C162.358 23.5721 162.11 24.3583 162.11 25.3551C162.11 26.3519 162.358 27.1382 162.854 27.7044C163.346 28.2754 164.034 28.5608 164.909 28.5608C165.784 28.5608 166.458 28.2754 166.954 27.7044C167.45 27.1335 167.703 26.3519 167.703 25.3551H167.698Z" fill="white"/>
<path d="M184.704 23.0244C184.245 22.6172 183.801 22.3224 183.38 22.1352C182.954 21.948 182.509 21.8591 182.041 21.8591C181.105 21.8591 180.361 22.1679 179.809 22.7857C179.257 23.4034 178.981 24.2411 178.981 25.3035C178.981 26.3658 179.266 27.1426 179.842 27.7557C180.413 28.3641 181.189 28.6683 182.158 28.6683C182.635 28.6683 183.085 28.5747 183.501 28.3828C183.922 28.1909 184.32 27.9008 184.699 27.503V31.5979C184.133 31.9161 183.567 32.1501 183.005 32.2999C182.439 32.4496 181.859 32.5245 181.255 32.5245C179.196 32.5245 177.53 31.8646 176.257 30.5449C174.984 29.2252 174.343 27.489 174.343 25.3315C174.343 23.1741 174.993 21.5268 176.294 20.1977C177.595 18.8686 179.266 18.2041 181.306 18.2041C181.985 18.2041 182.598 18.2696 183.146 18.4053C183.693 18.5411 184.208 18.7516 184.695 19.0418V23.029L184.704 23.0244Z" fill="white"/>
<path d="M201.791 25.3551C201.791 26.3192 201.604 27.2318 201.23 28.0975C200.855 28.9633 200.308 29.7402 199.592 30.4281C198.867 31.116 198.057 31.6402 197.163 31.9912C196.269 32.3422 195.315 32.52 194.308 32.52C193.302 32.52 192.324 32.3422 191.426 31.9912C190.527 31.6402 189.727 31.116 189.02 30.4281C188.313 29.7589 187.775 28.9867 187.406 28.1163C187.036 27.2458 186.849 26.3285 186.849 25.3551C186.849 24.3817 187.031 23.4504 187.396 22.5893C187.761 21.7236 188.304 20.9467 189.02 20.2588C189.717 19.5802 190.513 19.0654 191.412 18.7238C192.305 18.3775 193.274 18.209 194.304 18.209C195.333 18.209 196.297 18.3821 197.191 18.7238C198.085 19.0701 198.881 19.5802 199.587 20.2588C200.313 20.9561 200.86 21.7376 201.23 22.6034C201.6 23.4691 201.787 24.3864 201.787 25.3598L201.791 25.3551ZM197.102 25.3551C197.102 24.3583 196.849 23.5721 196.349 22.9965C195.843 22.4209 195.165 22.1354 194.308 22.1354C193.452 22.1354 192.759 22.4209 192.263 22.9965C191.762 23.5721 191.514 24.3583 191.514 25.3551C191.514 26.3519 191.762 27.1382 192.259 27.7044C192.75 28.2754 193.438 28.5608 194.313 28.5608C195.188 28.5608 195.862 28.2754 196.358 27.7044C196.854 27.1335 197.107 26.3519 197.107 25.3551H197.102Z" fill="white"/>
<path d="M204.635 32.0052V11.4746H209.361V32.0052H204.635Z" fill="white"/>
<path d="M56.8298 18.5698C58.1764 18.5698 59.268 17.4782 59.268 16.1316C59.268 14.785 58.1764 13.6934 56.8298 13.6934C55.4832 13.6934 54.3916 14.785 54.3916 16.1316C54.3916 17.4782 55.4832 18.5698 56.8298 18.5698Z" fill="#4ADE68"/>
<defs>
<linearGradient id="paint0_linear_113_1197" x1="-2.36208" y1="5.39202" x2="31.473" y2="36.5387" gradientUnits="userSpaceOnUse">
<stop stop-color="#74FF90"/>
<stop offset="1" stop-color="#02812E"/>
</linearGradient>
<linearGradient id="paint1_linear_113_1197" x1="26.4651" y1="31.0643" x2="10.8717" y2="17.9803" gradientUnits="userSpaceOnUse">
<stop offset="0.24" stop-color="#7FE17E"/>
<stop offset="0.57" stop-color="#258B45"/>
<stop offset="0.77" stop-color="#02812D"/>
</linearGradient>
<linearGradient id="paint2_linear_113_1197" x1="12.991" y1="26.1588" x2="23.0412" y2="22.3006" gradientUnits="userSpaceOnUse">
<stop offset="0.02" stop-color="#41AB5D"/>
<stop offset="0.4" stop-color="#41AB5D"/>
<stop offset="0.67" stop-color="#76C375"/>
<stop offset="0.97" stop-color="#C8E4BF"/>
</linearGradient>
</defs>
</svg>
