<svg width="64" height="64" viewBox="0 0 64 64" fill="none" xmlns="http://www.w3.org/2000/svg">
<g filter="url(#filter0_i_70_202)">
<path d="M0 12.96C0 8.32853 0 6.01279 0.929875 4.25656C1.68028 2.8393 2.8393 1.68028 4.25656 0.929875C6.01279 0 8.32853 0 12.96 0H51.04C55.6715 0 57.9872 0 59.7434 0.929875C61.1607 1.68028 62.3197 2.8393 63.0701 4.25656C64 6.01279 64 8.32853 64 12.96V51.04C64 55.6715 64 57.9872 63.0701 59.7434C62.3197 61.1607 61.1607 62.3197 59.7434 63.0701C57.9872 64 55.6715 64 51.04 64H12.96C8.32853 64 6.01279 64 4.25656 63.0701C2.8393 62.3197 1.68028 61.1607 0.929875 59.7434C0 57.9872 0 55.6715 0 51.04V12.96Z" fill="#232323" fill-opacity="0.5"/>
<path d="M0.5 12.96C0.5 10.6357 0.500415 8.9236 0.614464 7.57211C0.727994 6.22675 0.951443 5.28436 1.37176 4.49053C2.07526 3.16184 3.16184 2.07526 4.49053 1.37176C5.28436 0.951443 6.22675 0.727994 7.57211 0.614464C8.9236 0.500415 10.6357 0.5 12.96 0.5H51.04C53.3643 0.5 55.0764 0.500415 56.4279 0.614464C57.7733 0.727994 58.7156 0.951443 59.5095 1.37176C60.8382 2.07526 61.9247 3.16184 62.6282 4.49053C63.0486 5.28436 63.272 6.22675 63.3855 7.57211C63.4996 8.9236 63.5 10.6357 63.5 12.96V51.04C63.5 53.3643 63.4996 55.0764 63.3855 56.4279C63.272 57.7733 63.0486 58.7156 62.6282 59.5095C61.9247 60.8382 60.8382 61.9247 59.5095 62.6282C58.7156 63.0486 57.7733 63.272 56.4279 63.3855C55.0764 63.4996 53.3643 63.5 51.04 63.5H12.96C10.6357 63.5 8.9236 63.4996 7.57211 63.3855C6.22675 63.272 5.28436 63.0486 4.49053 62.6282C3.16184 61.9247 2.07526 60.8382 1.37176 59.5095C0.951443 58.7156 0.727994 57.7733 0.614464 56.4279C0.500415 55.0764 0.5 53.3643 0.5 51.04V12.96Z" stroke="url(#paint0_linear_70_202)"/>
<g clip-path="url(#clip0_70_202)">
<path d="M23.854 48V47.223H25.5987L27.7794 44.0525H16V16H48V44.0516H36.2206L38.4013 47.2221H40.146V47.9991H23.854V48ZM26.5416 47.2221H37.4576L35.2769 44.0516H28.7231L26.5424 47.2221H26.5416ZM16.777 43.2746H47.2221V39.9117H16.777V43.2746ZM16.777 39.1339H47.2221V16.671H16.777V39.1347V39.1339Z" fill="#C5FFCF" stroke="#C5FFCF" stroke-width="0.5"/>
<path d="M28.1327 26.4517C26.8471 26.4517 25.8008 25.4055 25.8008 24.1198V22.0819C25.8008 20.7963 26.8471 19.75 28.1327 19.75C29.4184 19.75 30.4647 20.7963 30.4647 22.0819V24.1198C30.4647 25.4055 29.4184 26.4517 28.1327 26.4517ZM28.1327 20.5279C27.2753 20.5279 26.5778 21.2254 26.5778 22.0828V24.1207C26.5778 24.978 27.2753 25.6756 28.1327 25.6756C28.9901 25.6756 29.6876 24.978 29.6876 24.1207V22.0828C29.6876 21.2254 28.9901 20.5279 28.1327 20.5279Z" fill="#C5FFCF" stroke="#C5FFCF" stroke-width="0.5"/>
<path d="M35.8944 26.4517C34.6088 26.4517 33.5625 25.4055 33.5625 24.1198V22.0819C33.5625 20.7963 34.6088 19.75 35.8944 19.75C37.1801 19.75 38.2264 20.7963 38.2264 22.0819V24.1198C38.2264 25.4055 37.1801 26.4517 35.8944 26.4517ZM35.8944 20.5279C35.0371 20.5279 34.3395 21.2254 34.3395 22.0828V24.1207C34.3395 24.978 35.0371 25.6756 35.8944 25.6756C36.7518 25.6756 37.4493 24.978 37.4493 24.1207V22.0828C37.4493 21.2254 36.7518 20.5279 35.8944 20.5279Z" fill="#C5FFCF" stroke="#C5FFCF" stroke-width="0.5"/>
<path d="M42.0934 20.2559H41.3164V25.9019H42.0934V20.2559Z" fill="#C5FFCF" stroke="#C5FFCF" stroke-width="0.5"/>
<path d="M22.6843 20.2559H21.9072V25.9019H22.6843V20.2559Z" fill="#C5FFCF" stroke="#C5FFCF" stroke-width="0.5"/>
<path d="M28.1327 36.1842C26.8471 36.1842 25.8008 35.1379 25.8008 33.8522V31.8144C25.8008 30.5287 26.8471 29.4824 28.1327 29.4824C29.4184 29.4824 30.4647 30.5287 30.4647 31.8144V33.8522C30.4647 35.1379 29.4184 36.1842 28.1327 36.1842ZM28.1327 30.2594C27.2753 30.2594 26.5778 30.957 26.5778 31.8144V33.8522C26.5778 34.7096 27.2753 35.4071 28.1327 35.4071C28.9901 35.4071 29.6876 34.7096 29.6876 33.8522V31.8144C29.6876 30.957 28.9901 30.2594 28.1327 30.2594Z" fill="#C5FFCF" stroke="#C5FFCF" stroke-width="0.5"/>
<path d="M39.7812 36.1842C38.4955 36.1842 37.4492 35.1379 37.4492 33.8522V31.8144C37.4492 30.5287 38.4955 29.4824 39.7812 29.4824C41.0668 29.4824 42.1131 30.5287 42.1131 31.8144V33.8522C42.1131 35.1379 41.0668 36.1842 39.7812 36.1842ZM39.7812 30.2594C38.9238 30.2594 38.2262 30.957 38.2262 31.8144V33.8522C38.2262 34.7096 38.9238 35.4071 39.7812 35.4071C40.6385 35.4071 41.3361 34.7096 41.3361 33.8522V31.8144C41.3361 30.957 40.6385 30.2594 39.7812 30.2594Z" fill="#C5FFCF" stroke="#C5FFCF" stroke-width="0.5"/>
<path d="M34.3395 29.9863H33.5625V35.6324H34.3395V29.9863Z" fill="#C5FFCF" stroke="#C5FFCF" stroke-width="0.5"/>
<path d="M22.6843 29.9863H21.9072V35.6324H22.6843V29.9863Z" fill="#C5FFCF" stroke="#C5FFCF" stroke-width="0.5"/>
</g>
</g>
<defs>
<filter id="filter0_i_70_202" x="0" y="0" width="64" height="64" filterUnits="userSpaceOnUse" color-interpolation-filters="sRGB">
<feFlood flood-opacity="0" result="BackgroundImageFix"/>
<feBlend mode="normal" in="SourceGraphic" in2="BackgroundImageFix" result="shape"/>
<feColorMatrix in="SourceAlpha" type="matrix" values="0 0 0 0 0 0 0 0 0 0 0 0 0 0 0 0 0 0 127 0" result="hardAlpha"/>
<feOffset/>
<feGaussianBlur stdDeviation="4"/>
<feComposite in2="hardAlpha" operator="arithmetic" k2="-1" k3="1"/>
<feColorMatrix type="matrix" values="0 0 0 0 0.972549 0 0 0 0 0.972549 0 0 0 0 0.972549 0 0 0 0.6 0"/>
<feBlend mode="normal" in2="shape" result="effect1_innerShadow_70_202"/>
</filter>
<linearGradient id="paint0_linear_70_202" x1="32" y1="-6.88849e-07" x2="58.4072" y2="66.6598" gradientUnits="userSpaceOnUse">
<stop stop-color="#BBF7C6"/>
<stop offset="0.4" stop-color="#052E0F" stop-opacity="0.1"/>
<stop offset="0.6" stop-color="#052E0F" stop-opacity="0.3"/>
<stop offset="1" stop-color="#BBF7C6"/>
</linearGradient>
<clipPath id="clip0_70_202">
<rect width="32" height="32" fill="white" transform="translate(16 16)"/>
</clipPath>
</defs>
</svg>
