<svg width="64" height="64" viewBox="0 0 64 64" fill="none" xmlns="http://www.w3.org/2000/svg">
<g filter="url(#filter0_i_67_2691)">
<path d="M0 12.96C0 8.32853 0 6.01279 0.929875 4.25656C1.68028 2.8393 2.8393 1.68028 4.25656 0.929875C6.01279 0 8.32853 0 12.96 0H51.04C55.6715 0 57.9872 0 59.7434 0.929875C61.1607 1.68028 62.3197 2.8393 63.0701 4.25656C64 6.01279 64 8.32853 64 12.96V51.04C64 55.6715 64 57.9872 63.0701 59.7434C62.3197 61.1607 61.1607 62.3197 59.7434 63.0701C57.9872 64 55.6715 64 51.04 64H12.96C8.32853 64 6.01279 64 4.25656 63.0701C2.8393 62.3197 1.68028 61.1607 0.929875 59.7434C0 57.9872 0 55.6715 0 51.04V12.96Z" fill="#232323" fill-opacity="0.5"/>
<path d="M0.5 12.96C0.5 10.6357 0.500415 8.9236 0.614464 7.57211C0.727994 6.22675 0.951443 5.28436 1.37176 4.49053C2.07526 3.16184 3.16184 2.07526 4.49053 1.37176C5.28436 0.951443 6.22675 0.727994 7.57211 0.614464C8.9236 0.500415 10.6357 0.5 12.96 0.5H51.04C53.3643 0.5 55.0764 0.500415 56.4279 0.614464C57.7733 0.727994 58.7156 0.951443 59.5095 1.37176C60.8382 2.07526 61.9247 3.16184 62.6282 4.49053C63.0486 5.28436 63.272 6.22675 63.3855 7.57211C63.4996 8.9236 63.5 10.6357 63.5 12.96V51.04C63.5 53.3643 63.4996 55.0764 63.3855 56.4279C63.272 57.7733 63.0486 58.7156 62.6282 59.5095C61.9247 60.8382 60.8382 61.9247 59.5095 62.6282C58.7156 63.0486 57.7733 63.272 56.4279 63.3855C55.0764 63.4996 53.3643 63.5 51.04 63.5H12.96C10.6357 63.5 8.9236 63.4996 7.57211 63.3855C6.22675 63.272 5.28436 63.0486 4.49053 62.6282C3.16184 61.9247 2.07526 60.8382 1.37176 59.5095C0.951443 58.7156 0.727994 57.7733 0.614464 56.4279C0.500415 55.0764 0.5 53.3643 0.5 51.04V12.96Z" stroke="url(#paint0_linear_67_2691)"/>
<g clip-path="url(#clip0_67_2691)">
<path d="M18.7557 29.2263V28.4608H20.4272L21.0285 25.6642H16.2529V16.252H30.6294V25.6642H25.8529L26.4542 28.4608H27.943V29.2263H18.7557ZM21.2104 28.4608H25.671L25.0698 25.6642H21.8125L21.2112 28.4608H21.2104ZM17.0184 24.8978H29.863V17.0174H17.0184V24.8978Z" fill="#C2FFCE" stroke="#C2FFCE" stroke-width="0.5"/>
<path d="M35.903 29.2263V28.4608H37.5746L38.1758 25.6642H33.3994V16.252H47.7758V25.6642H42.9994L43.6007 28.4608H45.0895V29.2263H35.9022H35.903ZM38.3577 28.4608H42.8184L42.2171 25.6642H38.9598L38.3586 28.4608H38.3577ZM34.1657 24.8978H47.0104V17.0174H34.1657V24.8978Z" fill="#C2FFCE" stroke="#C2FFCE" stroke-width="0.5"/>
<path d="M25.5796 43.9712V40.6381H20.3408V34.4411H21.1063V39.8726H25.5796V36.5396L32.0158 32.8242L38.452 36.5396V39.8726H42.9252V34.4411H43.6907V40.6381H38.452V43.9712L32.0158 47.6874L25.5796 43.972V43.9712ZM26.345 43.5291L31.6326 46.5817V40.4764L26.345 37.4238V43.5291ZM32.3981 40.4764V46.5817L37.6857 43.5291V37.4238L32.3981 40.4764ZM26.7282 36.7602L32.0158 39.8129L37.3033 36.7602L32.0158 33.7076L26.7282 36.7602Z" fill="#C2FFCE" stroke="#C2FFCE" stroke-width="0.5"/>
</g>
</g>
<defs>
<filter id="filter0_i_67_2691" x="0" y="0" width="64" height="64" filterUnits="userSpaceOnUse" color-interpolation-filters="sRGB">
<feFlood flood-opacity="0" result="BackgroundImageFix"/>
<feBlend mode="normal" in="SourceGraphic" in2="BackgroundImageFix" result="shape"/>
<feColorMatrix in="SourceAlpha" type="matrix" values="0 0 0 0 0 0 0 0 0 0 0 0 0 0 0 0 0 0 127 0" result="hardAlpha"/>
<feOffset/>
<feGaussianBlur stdDeviation="4"/>
<feComposite in2="hardAlpha" operator="arithmetic" k2="-1" k3="1"/>
<feColorMatrix type="matrix" values="0 0 0 0 0.972549 0 0 0 0 0.972549 0 0 0 0 0.972549 0 0 0 0.6 0"/>
<feBlend mode="normal" in2="shape" result="effect1_innerShadow_67_2691"/>
</filter>
<linearGradient id="paint0_linear_67_2691" x1="32" y1="-6.88849e-07" x2="58.4072" y2="66.6598" gradientUnits="userSpaceOnUse">
<stop stop-color="#BBF7C6"/>
<stop offset="0.4" stop-color="#052E0F" stop-opacity="0.1"/>
<stop offset="0.6" stop-color="#052E0F" stop-opacity="0.3"/>
<stop offset="1" stop-color="#BBF7C6"/>
</linearGradient>
<clipPath id="clip0_67_2691">
<rect width="32" height="32" fill="white" transform="translate(16 16)"/>
</clipPath>
</defs>
</svg>
