<svg width="64" height="64" viewBox="0 0 64 64" fill="none" xmlns="http://www.w3.org/2000/svg">
<g filter="url(#filter0_i_67_2720)">
<path d="M0 12.96C0 8.32853 0 6.01279 0.929875 4.25656C1.68028 2.8393 2.8393 1.68028 4.25656 0.929875C6.01279 0 8.32853 0 12.96 0H51.04C55.6715 0 57.9872 0 59.7434 0.929875C61.1607 1.68028 62.3197 2.8393 63.0701 4.25656C64 6.01279 64 8.32853 64 12.96V51.04C64 55.6715 64 57.9872 63.0701 59.7434C62.3197 61.1607 61.1607 62.3197 59.7434 63.0701C57.9872 64 55.6715 64 51.04 64H12.96C8.32853 64 6.01279 64 4.25656 63.0701C2.8393 62.3197 1.68028 61.1607 0.929875 59.7434C0 57.9872 0 55.6715 0 51.04V12.96Z" fill="#232323" fill-opacity="0.5"/>
<path d="M0.5 12.96C0.5 10.6357 0.500415 8.9236 0.614464 7.57211C0.727994 6.22675 0.951443 5.28436 1.37176 4.49053C2.07526 3.16184 3.16184 2.07526 4.49053 1.37176C5.28436 0.951443 6.22675 0.727994 7.57211 0.614464C8.9236 0.500415 10.6357 0.5 12.96 0.5H51.04C53.3643 0.5 55.0764 0.500415 56.4279 0.614464C57.7733 0.727994 58.7156 0.951443 59.5095 1.37176C60.8382 2.07526 61.9247 3.16184 62.6282 4.49053C63.0486 5.28436 63.272 6.22675 63.3855 7.57211C63.4996 8.9236 63.5 10.6357 63.5 12.96V51.04C63.5 53.3643 63.4996 55.0764 63.3855 56.4279C63.272 57.7733 63.0486 58.7156 62.6282 59.5095C61.9247 60.8382 60.8382 61.9247 59.5095 62.6282C58.7156 63.0486 57.7733 63.272 56.4279 63.3855C55.0764 63.4996 53.3643 63.5 51.04 63.5H12.96C10.6357 63.5 8.9236 63.4996 7.57211 63.3855C6.22675 63.272 5.28436 63.0486 4.49053 62.6282C3.16184 61.9247 2.07526 60.8382 1.37176 59.5095C0.951443 58.7156 0.727994 57.7733 0.614464 56.4279C0.500415 55.0764 0.5 53.3643 0.5 51.04V12.96Z" stroke="url(#paint0_linear_67_2720)"/>
<g clip-path="url(#clip0_67_2720)">
<path d="M23.7516 42.489V36.2092L23.229 36.161C21.5333 36.0043 19.9622 35.2569 18.8052 34.0562C17.6413 32.8475 17 31.2827 17 29.6497C17 28.0166 17.6854 26.3426 18.9307 25.117C20.1726 23.8946 21.837 23.1826 23.6175 23.1135L24.152 23.0926L24.1715 22.5863C24.23 21.085 24.8942 19.6802 26.0403 18.6306C27.1905 17.5794 28.7013 17 30.2944 17C31.8875 17 33.4212 17.5995 34.5749 18.6877C35.5165 19.5765 36.1137 20.6912 36.302 21.9104L36.3691 22.346L36.8322 22.3781C38.8809 22.5196 40.5808 23.9541 40.966 25.8668L41.0559 26.3121H41.7252C44.6128 26.3121 46.9787 28.5117 46.9999 31.2144C47.01 32.5413 46.4731 33.791 45.4865 34.7321C44.4999 35.6731 43.1859 36.1923 41.7854 36.1923H40.2474V42.489L31.9995 47L23.7516 42.489ZM24.5218 42.0679L31.6144 45.9472V38.1886L24.5218 34.3093V42.0679ZM32.3846 38.1878V45.9464L39.4772 42.0671V34.3085L32.3846 38.1878ZM24.9069 33.6768L31.9995 37.5561L39.0921 33.6768L31.9995 29.7976L24.9069 33.6768ZM23.9051 23.8376C20.5221 23.8376 17.7702 26.4447 17.7702 29.6497C17.7702 32.5541 20.0606 35.031 23.0975 35.412L23.7516 35.4939V33.4663L31.9995 28.9553L40.2474 33.4663V35.4626H41.7854C42.979 35.4626 44.0987 35.0206 44.9394 34.2185C45.78 33.4165 46.2381 32.3516 46.2296 31.2208C46.2118 28.9167 44.1912 27.0426 41.7252 27.0426H40.2771V26.6777C40.2771 24.7063 38.584 23.0998 36.5031 23.0974L35.5954 23.1054V22.7374C35.5954 21.4113 35.0406 20.1576 34.032 19.2061C33.0242 18.2553 31.6975 17.7313 30.2953 17.7313C27.3415 17.7313 24.9392 20.0081 24.9392 22.8057V23.8392H23.9059L23.9051 23.8376Z" fill="#C0FFCC" stroke="#C0FFCC" stroke-width="0.5"/>
</g>
</g>
<defs>
<filter id="filter0_i_67_2720" x="0" y="0" width="64" height="64" filterUnits="userSpaceOnUse" color-interpolation-filters="sRGB">
<feFlood flood-opacity="0" result="BackgroundImageFix"/>
<feBlend mode="normal" in="SourceGraphic" in2="BackgroundImageFix" result="shape"/>
<feColorMatrix in="SourceAlpha" type="matrix" values="0 0 0 0 0 0 0 0 0 0 0 0 0 0 0 0 0 0 127 0" result="hardAlpha"/>
<feOffset/>
<feGaussianBlur stdDeviation="4"/>
<feComposite in2="hardAlpha" operator="arithmetic" k2="-1" k3="1"/>
<feColorMatrix type="matrix" values="0 0 0 0 0.972549 0 0 0 0 0.972549 0 0 0 0 0.972549 0 0 0 0.6 0"/>
<feBlend mode="normal" in2="shape" result="effect1_innerShadow_67_2720"/>
</filter>
<linearGradient id="paint0_linear_67_2720" x1="32" y1="-6.88849e-07" x2="58.4072" y2="66.6598" gradientUnits="userSpaceOnUse">
<stop stop-color="#BBF7C6"/>
<stop offset="0.4" stop-color="#052E0F" stop-opacity="0.1"/>
<stop offset="0.6" stop-color="#052E0F" stop-opacity="0.3"/>
<stop offset="1" stop-color="#BBF7C6"/>
</linearGradient>
<clipPath id="clip0_67_2720">
<rect width="32" height="32" fill="white" transform="translate(16 16)"/>
</clipPath>
</defs>
</svg>
