<svg width="64" height="64" viewBox="0 0 64 64" fill="none" xmlns="http://www.w3.org/2000/svg">
<g filter="url(#filter0_i_67_2702)">
<path d="M0 12.96C0 8.32853 0 6.01279 0.929875 4.25656C1.68028 2.8393 2.8393 1.68028 4.25656 0.929875C6.01279 0 8.32853 0 12.96 0H51.04C55.6715 0 57.9872 0 59.7434 0.929875C61.1607 1.68028 62.3197 2.8393 63.0701 4.25656C64 6.01279 64 8.32853 64 12.96V51.04C64 55.6715 64 57.9872 63.0701 59.7434C62.3197 61.1607 61.1607 62.3197 59.7434 63.0701C57.9872 64 55.6715 64 51.04 64H12.96C8.32853 64 6.01279 64 4.25656 63.0701C2.8393 62.3197 1.68028 61.1607 0.929875 59.7434C0 57.9872 0 55.6715 0 51.04V12.96Z" fill="#232323" fill-opacity="0.5"/>
<path d="M0.5 12.96C0.5 10.6357 0.500415 8.9236 0.614464 7.57211C0.727994 6.22675 0.951443 5.28436 1.37176 4.49053C2.07526 3.16184 3.16184 2.07526 4.49053 1.37176C5.28436 0.951443 6.22675 0.727994 7.57211 0.614464C8.9236 0.500415 10.6357 0.5 12.96 0.5H51.04C53.3643 0.5 55.0764 0.500415 56.4279 0.614464C57.7733 0.727994 58.7156 0.951443 59.5095 1.37176C60.8382 2.07526 61.9247 3.16184 62.6282 4.49053C63.0486 5.28436 63.272 6.22675 63.3855 7.57211C63.4996 8.9236 63.5 10.6357 63.5 12.96V51.04C63.5 53.3643 63.4996 55.0764 63.3855 56.4279C63.272 57.7733 63.0486 58.7156 62.6282 59.5095C61.9247 60.8382 60.8382 61.9247 59.5095 62.6282C58.7156 63.0486 57.7733 63.272 56.4279 63.3855C55.0764 63.4996 53.3643 63.5 51.04 63.5H12.96C10.6357 63.5 8.9236 63.4996 7.57211 63.3855C6.22675 63.272 5.28436 63.0486 4.49053 62.6282C3.16184 61.9247 2.07526 60.8382 1.37176 59.5095C0.951443 58.7156 0.727994 57.7733 0.614464 56.4279C0.500415 55.0764 0.5 53.3643 0.5 51.04V12.96Z" stroke="url(#paint0_linear_67_2702)"/>
<g clip-path="url(#clip0_67_2702)">
<path d="M30 32.1282L30.534 31.5616L31.7647 32.8667L34.466 30L35 30.5666L31.7647 34L30 32.1282Z" fill="#C2FFCE" stroke="#C2FFCE" stroke-width="0.5"/>
<path d="M43.4653 46.9992C41.5172 46.9992 39.9329 45.4141 39.9329 43.4668C39.9329 42.7856 40.1293 42.1229 40.5003 41.5507L40.7415 41.1797L36.2187 36.6567L35.838 36.9525C34.9766 37.6216 33.9525 38.0559 32.8779 38.2074L32.4075 38.2739V42.4859H34.3003V47H29.7863V42.4859H31.6791V38.2795L31.2015 38.2186C30.122 38.0808 29.0899 37.6585 28.218 36.9957L27.8382 36.7072L23.3066 41.2398L23.5358 41.6084C23.8828 42.167 24.0663 42.8096 24.0663 43.4676C24.0663 45.4157 22.4812 47 20.5331 47C18.5851 47 17 45.4141 17 43.466C17 42.5244 17.3678 41.6372 18.0361 40.9689C18.7045 40.3006 19.5908 39.9327 20.5323 39.9327C21.2031 39.9327 21.857 40.1235 22.4235 40.4841L22.7937 40.7197L27.3205 36.1928L27.028 35.8121C26.3605 34.9442 25.9318 33.9161 25.7868 32.8374L25.7235 32.3638H21.514V34.2567H17V29.7425H21.514V31.6354H25.7235L25.7868 31.1618C25.9326 30.0719 26.3685 29.0341 27.0473 28.1614L27.343 27.7808L22.8202 23.2579L22.4492 23.4991C21.877 23.8701 21.2143 24.0665 20.5331 24.0665C18.5851 24.0657 17 22.4806 17 20.5324C17 18.5843 18.5851 17 20.5331 17C22.4812 17 24.0663 18.5851 24.0663 20.5324C24.0663 21.1807 23.8884 21.8146 23.5518 22.366L23.3282 22.733L27.8639 27.2687L28.2429 26.9834C29.1091 26.3327 30.1325 25.9168 31.2015 25.7806L31.6791 25.7197V21.5133H29.7863V17H34.3003V21.5141H32.4075V25.7269L32.8779 25.7934C33.9421 25.9433 34.9566 26.3704 35.8132 27.0291L36.1938 27.3216L40.7207 22.7947L40.4851 22.4245C40.1245 21.8579 39.9337 21.204 39.9337 20.5332C39.9337 18.5851 41.5188 17.0008 43.4661 17.0008C45.4133 17.0008 46.9992 18.5859 46.9992 20.5332C46.9992 22.4806 45.4141 24.0665 43.4669 24.0665C42.809 24.0665 42.1663 23.8829 41.6077 23.536L41.2391 23.3068L36.7075 27.8385L36.996 28.2183C37.6491 29.079 38.0698 30.0968 38.2132 31.1618L38.2765 31.6354H42.486V29.7425H47V34.2567H42.486V32.3638H38.2765L38.2132 32.8374C38.0714 33.892 37.6579 34.901 37.016 35.756L36.7307 36.1351L41.2664 40.6716L41.6334 40.4472C42.1847 40.1106 42.8194 39.9327 43.4669 39.9327C45.4149 39.9327 47 41.5178 47 43.4652C47 45.4125 45.4149 46.9976 43.4669 46.9976L43.4653 46.9992ZM43.4653 40.662C41.9195 40.662 40.6614 41.9201 40.6614 43.466C40.6614 45.0118 41.9195 46.27 43.4653 46.27C45.0111 46.27 46.2692 45.0118 46.2692 43.466C46.2692 41.9201 45.0111 40.662 43.4653 40.662ZM30.5139 46.27H33.5702V43.2135H30.5139V46.27ZM20.5323 40.662C18.9865 40.662 17.7284 41.9201 17.7284 43.466C17.7284 45.0118 18.9865 46.27 20.5323 46.27C22.0781 46.27 23.3362 45.0118 23.3362 43.466C23.3362 41.9201 22.0781 40.662 20.5323 40.662ZM31.9988 26.4593C28.9441 26.4593 26.4591 28.9444 26.4591 31.9992C26.4591 35.054 28.9441 37.5391 31.9988 37.5391C35.0535 37.5391 37.5385 35.054 37.5385 31.9992C37.5385 28.9444 35.0535 26.4593 31.9988 26.4593ZM43.2128 33.5282H46.2692V30.4718H43.2128V33.5282ZM17.7284 33.5282H20.7848V30.4718H17.7284V33.5282ZM20.5323 17.7284C18.9865 17.7284 17.7284 18.9866 17.7284 20.5324C17.7284 22.0783 18.9865 23.3364 20.5323 23.3364C22.0781 23.3364 23.3362 22.0783 23.3362 20.5324C23.3362 18.9866 22.0789 17.7284 20.5323 17.7284ZM43.4653 17.7284C41.9195 17.7284 40.6614 18.9866 40.6614 20.5324C40.6614 22.0783 41.9195 23.3364 43.4653 23.3364C45.0111 23.3364 46.2692 22.0783 46.2692 20.5324C46.2692 18.9866 45.0111 17.7284 43.4653 17.7284ZM30.5139 20.7857H33.5702V17.7284H30.5139V20.7849V20.7857Z" fill="#C2FFCE" stroke="#C2FFCE" stroke-width="0.5"/>
</g>
</g>
<defs>
<filter id="filter0_i_67_2702" x="0" y="0" width="64" height="64" filterUnits="userSpaceOnUse" color-interpolation-filters="sRGB">
<feFlood flood-opacity="0" result="BackgroundImageFix"/>
<feBlend mode="normal" in="SourceGraphic" in2="BackgroundImageFix" result="shape"/>
<feColorMatrix in="SourceAlpha" type="matrix" values="0 0 0 0 0 0 0 0 0 0 0 0 0 0 0 0 0 0 127 0" result="hardAlpha"/>
<feOffset/>
<feGaussianBlur stdDeviation="4"/>
<feComposite in2="hardAlpha" operator="arithmetic" k2="-1" k3="1"/>
<feColorMatrix type="matrix" values="0 0 0 0 0.972549 0 0 0 0 0.972549 0 0 0 0 0.972549 0 0 0 0.6 0"/>
<feBlend mode="normal" in2="shape" result="effect1_innerShadow_67_2702"/>
</filter>
<linearGradient id="paint0_linear_67_2702" x1="32" y1="-6.88849e-07" x2="58.4072" y2="66.6598" gradientUnits="userSpaceOnUse">
<stop stop-color="#BBF7C6"/>
<stop offset="0.4" stop-color="#052E0F" stop-opacity="0.1"/>
<stop offset="0.6" stop-color="#052E0F" stop-opacity="0.3"/>
<stop offset="1" stop-color="#BBF7C6"/>
</linearGradient>
<clipPath id="clip0_67_2702">
<rect width="32" height="32" fill="white" transform="translate(16 16)"/>
</clipPath>
</defs>
</svg>
