<svg width="64" height="64" viewBox="0 0 64 64" fill="none" xmlns="http://www.w3.org/2000/svg">
<g filter="url(#filter0_i_67_2684)">
<path d="M0 12.96C0 8.32853 0 6.01279 0.929875 4.25656C1.68028 2.8393 2.8393 1.68028 4.25656 0.929875C6.01279 0 8.32853 0 12.96 0H51.04C55.6715 0 57.9872 0 59.7434 0.929875C61.1607 1.68028 62.3197 2.8393 63.0701 4.25656C64 6.01279 64 8.32853 64 12.96V51.04C64 55.6715 64 57.9872 63.0701 59.7434C62.3197 61.1607 61.1607 62.3197 59.7434 63.0701C57.9872 64 55.6715 64 51.04 64H12.96C8.32853 64 6.01279 64 4.25656 63.0701C2.8393 62.3197 1.68028 61.1607 0.929875 59.7434C0 57.9872 0 55.6715 0 51.04V12.96Z" fill="#232323" fill-opacity="0.5"/>
<path d="M0.5 12.96C0.5 10.6357 0.500415 8.9236 0.614464 7.57211C0.727994 6.22675 0.951443 5.28436 1.37176 4.49053C2.07526 3.16184 3.16184 2.07526 4.49053 1.37176C5.28436 0.951443 6.22675 0.727994 7.57211 0.614464C8.9236 0.500415 10.6357 0.5 12.96 0.5H51.04C53.3643 0.5 55.0764 0.500415 56.4279 0.614464C57.7733 0.727994 58.7156 0.951443 59.5095 1.37176C60.8382 2.07526 61.9247 3.16184 62.6282 4.49053C63.0486 5.28436 63.272 6.22675 63.3855 7.57211C63.4996 8.9236 63.5 10.6357 63.5 12.96V51.04C63.5 53.3643 63.4996 55.0764 63.3855 56.4279C63.272 57.7733 63.0486 58.7156 62.6282 59.5095C61.9247 60.8382 60.8382 61.9247 59.5095 62.6282C58.7156 63.0486 57.7733 63.272 56.4279 63.3855C55.0764 63.4996 53.3643 63.5 51.04 63.5H12.96C10.6357 63.5 8.9236 63.4996 7.57211 63.3855C6.22675 63.272 5.28436 63.0486 4.49053 62.6282C3.16184 61.9247 2.07526 60.8382 1.37176 59.5095C0.951443 58.7156 0.727994 57.7733 0.614464 56.4279C0.500415 55.0764 0.5 53.3643 0.5 51.04V12.96Z" stroke="url(#paint0_linear_67_2684)"/>
<path d="M20.5789 43.7019V37.1072L26.101 34.0212V27.8484L27.5471 27.0399V19.6914H23.677V21.5269H19V17H23.6762V18.9609H28.3017V26.6188L31.5301 24.8146V17H32.2847V24.711L35.5132 26.5151V19.0822H40.0009L40.1246 18.6973C40.4517 17.6823 41.4088 17 42.5063 17C43.881 17 45 18.0833 45 19.4141C45 20.745 43.881 21.8283 42.5063 21.8283C41.437 21.8283 40.4874 21.1685 40.1437 20.1856L40.0133 19.8136H36.2678V26.937L37.899 27.8492V34.022L43.4211 37.108V43.7027L37.5221 47L32 43.914L26.4779 47L20.5789 43.7027V43.7019ZM37.899 40.6159V45.9448L42.6656 43.2807V37.9518L37.899 40.6159ZM32.3777 43.2799L37.1444 45.944V40.6151L32.3777 37.951V43.2799ZM26.8556 40.6159V45.9448L31.6223 43.2807V37.9518L26.8556 40.6159ZM21.3335 43.2799L26.1002 45.944V40.6151L21.3335 37.951V43.2799ZM32.7546 37.3185L37.5213 39.9826L42.2879 37.3185L37.5213 34.6544L32.7546 37.3185ZM21.7112 37.3185L26.4779 39.9826L31.2446 37.3185L26.4779 34.6544L21.7112 37.3185ZM32.3777 31.3571V36.686L37.1444 34.022V28.693L32.3777 31.3571ZM26.8556 34.0212L31.6223 36.6852V31.3563L26.8556 28.6922V34.0212ZM27.2333 28.0597L32 30.7238L36.7667 28.0597L32 25.3957L27.2333 28.0597ZM42.5063 17.7305C41.5474 17.7305 40.7671 18.4859 40.7671 19.4141C40.7671 20.3424 41.5474 21.0978 42.5063 21.0978C43.4651 21.0978 44.2454 20.3424 44.2454 19.4141C44.2454 18.4859 43.4651 17.7305 42.5063 17.7305ZM19.7546 20.7964H22.9208V17.7305H19.7546V20.7956V20.7964Z" fill="#C5FFCF" stroke="#C5FFCF" stroke-width="0.5"/>
</g>
<defs>
<filter id="filter0_i_67_2684" x="0" y="0" width="64" height="64" filterUnits="userSpaceOnUse" color-interpolation-filters="sRGB">
<feFlood flood-opacity="0" result="BackgroundImageFix"/>
<feBlend mode="normal" in="SourceGraphic" in2="BackgroundImageFix" result="shape"/>
<feColorMatrix in="SourceAlpha" type="matrix" values="0 0 0 0 0 0 0 0 0 0 0 0 0 0 0 0 0 0 127 0" result="hardAlpha"/>
<feOffset/>
<feGaussianBlur stdDeviation="4"/>
<feComposite in2="hardAlpha" operator="arithmetic" k2="-1" k3="1"/>
<feColorMatrix type="matrix" values="0 0 0 0 0.972549 0 0 0 0 0.972549 0 0 0 0 0.972549 0 0 0 0.6 0"/>
<feBlend mode="normal" in2="shape" result="effect1_innerShadow_67_2684"/>
</filter>
<linearGradient id="paint0_linear_67_2684" x1="32" y1="-6.88849e-07" x2="58.4072" y2="66.6598" gradientUnits="userSpaceOnUse">
<stop stop-color="#BBF7C6"/>
<stop offset="0.4" stop-color="#052E0F" stop-opacity="0.1"/>
<stop offset="0.6" stop-color="#052E0F" stop-opacity="0.3"/>
<stop offset="1" stop-color="#BBF7C6"/>
</linearGradient>
</defs>
</svg>
