<svg width="64" height="64" viewBox="0 0 64 64" fill="none" xmlns="http://www.w3.org/2000/svg">
<g filter="url(#filter0_i_67_2710)">
<path d="M0 12.96C0 8.32853 0 6.01279 0.929875 4.25656C1.68028 2.8393 2.8393 1.68028 4.25656 0.929875C6.01279 0 8.32853 0 12.96 0H51.04C55.6715 0 57.9872 0 59.7434 0.929875C61.1607 1.68028 62.3197 2.8393 63.0701 4.25656C64 6.01279 64 8.32853 64 12.96V51.04C64 55.6715 64 57.9872 63.0701 59.7434C62.3197 61.1607 61.1607 62.3197 59.7434 63.0701C57.9872 64 55.6715 64 51.04 64H12.96C8.32853 64 6.01279 64 4.25656 63.0701C2.8393 62.3197 1.68028 61.1607 0.929875 59.7434C0 57.9872 0 55.6715 0 51.04V12.96Z" fill="#232323" fill-opacity="0.5"/>
<path d="M0.5 12.96C0.5 10.6357 0.500415 8.9236 0.614464 7.57211C0.727994 6.22675 0.951443 5.28436 1.37176 4.49053C2.07526 3.16184 3.16184 2.07526 4.49053 1.37176C5.28436 0.951443 6.22675 0.727994 7.57211 0.614464C8.9236 0.500415 10.6357 0.5 12.96 0.5H51.04C53.3643 0.5 55.0764 0.500415 56.4279 0.614464C57.7733 0.727994 58.7156 0.951443 59.5095 1.37176C60.8382 2.07526 61.9247 3.16184 62.6282 4.49053C63.0486 5.28436 63.272 6.22675 63.3855 7.57211C63.4996 8.9236 63.5 10.6357 63.5 12.96V51.04C63.5 53.3643 63.4996 55.0764 63.3855 56.4279C63.272 57.7733 63.0486 58.7156 62.6282 59.5095C61.9247 60.8382 60.8382 61.9247 59.5095 62.6282C58.7156 63.0486 57.7733 63.272 56.4279 63.3855C55.0764 63.4996 53.3643 63.5 51.04 63.5H12.96C10.6357 63.5 8.9236 63.4996 7.57211 63.3855C6.22675 63.272 5.28436 63.0486 4.49053 62.6282C3.16184 61.9247 2.07526 60.8382 1.37176 59.5095C0.951443 58.7156 0.727994 57.7733 0.614464 56.4279C0.500415 55.0764 0.5 53.3643 0.5 51.04V12.96Z" stroke="url(#paint0_linear_67_2710)"/>
<g clip-path="url(#clip0_67_2710)">
<path d="M25.0204 32.0684H24.2529V32.8359H25.0204V32.0684Z" fill="#C1FFCD" stroke="#C1FFCD" stroke-width="0.5"/>
<path d="M37.4501 47.7754C33.681 47.7754 30.2438 45.5489 28.6944 42.1023L28.5416 41.7629H16.9287V24.7658H20.4344V20.371C20.4344 18.0534 22.3197 16.168 24.6366 16.168C26.9534 16.168 28.8396 18.0534 28.8396 20.371V24.7658H32.3453V30.0082L33.1786 29.5919C34.5144 28.9249 35.9514 28.5863 37.4501 28.5863C42.7406 28.5863 47.0442 32.8907 47.0442 38.1804C47.0442 43.4701 42.7398 47.7745 37.4501 47.7745V47.7754ZM37.4501 29.3538C32.5834 29.3538 28.6235 33.3137 28.6235 38.1804C28.6235 43.0471 32.5834 47.007 37.4501 47.007C42.3168 47.007 46.2767 43.0471 46.2767 38.1804C46.2767 33.3137 42.3168 29.3538 37.4501 29.3538ZM17.6962 40.9946H28.2478L28.089 40.2921C27.9337 39.6014 27.8543 38.8913 27.8543 38.1804C27.8543 35.303 29.1343 32.6011 31.3659 30.7664L31.5761 30.5933V25.5324H17.6962V40.9937V40.9946ZM24.6366 16.9355C22.7427 16.9355 21.2019 18.4764 21.2019 20.3702V24.7649H28.0721V20.3702C28.0721 18.4764 26.5312 16.9355 24.6374 16.9355H24.6366Z" fill="#C1FFCD" stroke="#C1FFCD" stroke-width="0.5"/>
<circle cx="37.4884" cy="38.1623" r="5.36148" stroke="#C1FFCD" stroke-width="1.5"/>
</g>
</g>
<defs>
<filter id="filter0_i_67_2710" x="0" y="0" width="64" height="64" filterUnits="userSpaceOnUse" color-interpolation-filters="sRGB">
<feFlood flood-opacity="0" result="BackgroundImageFix"/>
<feBlend mode="normal" in="SourceGraphic" in2="BackgroundImageFix" result="shape"/>
<feColorMatrix in="SourceAlpha" type="matrix" values="0 0 0 0 0 0 0 0 0 0 0 0 0 0 0 0 0 0 127 0" result="hardAlpha"/>
<feOffset/>
<feGaussianBlur stdDeviation="4"/>
<feComposite in2="hardAlpha" operator="arithmetic" k2="-1" k3="1"/>
<feColorMatrix type="matrix" values="0 0 0 0 0.972549 0 0 0 0 0.972549 0 0 0 0 0.972549 0 0 0 0.6 0"/>
<feBlend mode="normal" in2="shape" result="effect1_innerShadow_67_2710"/>
</filter>
<linearGradient id="paint0_linear_67_2710" x1="32" y1="-6.88849e-07" x2="58.4072" y2="66.6598" gradientUnits="userSpaceOnUse">
<stop stop-color="#BBF7C6"/>
<stop offset="0.4" stop-color="#052E0F" stop-opacity="0.1"/>
<stop offset="0.6" stop-color="#052E0F" stop-opacity="0.3"/>
<stop offset="1" stop-color="#BBF7C6"/>
</linearGradient>
<clipPath id="clip0_67_2710">
<rect width="32" height="32" fill="white" transform="translate(16 16)"/>
</clipPath>
</defs>
</svg>
