<svg width="21" height="20" viewBox="0 0 21 20" fill="none" xmlns="http://www.w3.org/2000/svg">
<g clip-path="url(#clip0_260_3381)">
<path d="M3.66309 18.3745V15.1536H6.88406" stroke="white" stroke-width="1.7" stroke-linecap="round" stroke-linejoin="round"/>
<path d="M18.3376 8.46094C19.139 12.7229 16.5309 16.948 12.2727 18.0891C9.01368 18.9623 5.68836 17.7876 3.66309 15.3539" stroke="white" stroke-width="1.7" stroke-linecap="round" stroke-linejoin="round"/>
<path d="M1.8728 11.539C1.07136 7.27704 3.67948 3.05182 7.93765 1.91085C11.1965 1.03765 14.5216 2.2121 16.5469 4.64553" stroke="white" stroke-width="1.7" stroke-linecap="round" stroke-linejoin="round"/>
<path d="M16.5471 1.62564V4.84662H13.3262" stroke="white" stroke-width="1.7" stroke-linecap="round" stroke-linejoin="round"/>
<path d="M6.32521 10.4332C5.86946 10.354 5.86946 9.6997 6.32521 9.62042C7.97633 9.33317 9.28956 8.07555 9.64794 6.4384L9.67541 6.31291C9.77402 5.86248 10.4154 5.85968 10.5179 6.30922L10.5513 6.45547C10.9229 8.0849 12.2365 9.33188 13.883 9.61834C14.341 9.69804 14.341 10.3556 13.883 10.4353C12.2365 10.7218 10.9229 11.9688 10.5513 13.5982L10.5179 13.7444C10.4154 14.194 9.77402 14.1912 9.67541 13.7408L9.64794 13.6153C9.28956 11.9781 7.97633 10.7205 6.32521 10.4332Z" stroke="white" stroke-width="1.7" stroke-linecap="round" stroke-linejoin="round"/>
</g>
<defs>
<clipPath id="clip0_260_3381">
<rect width="20" height="20" fill="white" transform="translate(0.105469)"/>
</clipPath>
</defs>
</svg>
